<svg fill="none" xmlns="http://www.w3.org/2000/svg" viewBox="26.5 30.5 111 103"> <mask id="path-2-outside-1_1842_2882" maskUnits="userSpaceOnUse" x="27" y="31.0002" width="110" height="102" fill="black"> <rect fill="black" x="27" y="31.0002" width="110" height="102"/> <path d="M83.5825 92.1637L73.0331 91.1818L68.8272 81.5323C68.6236 81.0642 68.1609 80.7614 67.6474 80.7614C67.1338 80.7614 66.6711 81.0642 66.4675 81.5323L62.2616 91.1818L51.7169 92.1637C51.2033 92.2096 50.773 92.5583 50.611 93.0401C50.4537 93.5219 50.5971 94.0541 50.9858 94.3936L58.9348 101.341L56.6168 111.596C56.5057 112.091 56.7001 112.61 57.1165 112.908C57.5329 113.206 58.0881 113.234 58.5277 112.972L67.6427 107.618L76.7578 112.972C76.9614 113.092 77.1881 113.151 77.4148 113.151C77.6832 113.151 77.9469 113.069 78.1736 112.908C78.59 112.61 78.7844 112.091 78.6733 111.596L76.3599 101.341L84.3089 94.3936C84.693 94.0587 84.841 93.5264 84.6837 93.0401C84.5264 92.5583 84.0915 92.2096 83.5779 92.1637L83.5825 92.1637ZM74.088 99.9228C73.7364 100.23 73.5791 100.703 73.6809 101.162L75.5085 109.274L68.2998 105.039C68.0962 104.92 67.8695 104.86 67.6428 104.86C67.4161 104.86 67.1894 104.92 66.9858 105.039L59.777 109.274L61.6093 101.166C61.7111 100.712 61.5584 100.239 61.2022 99.9274L54.9142 94.435L63.2519 93.6595C63.7193 93.6182 64.1264 93.3246 64.3115 92.8933L67.6383 85.2626L70.9651 92.8933C71.1501 93.32 71.5573 93.6137 72.0246 93.6595L80.367 94.435L74.079 99.9274L74.088 99.9228ZM135.774 91.1681C135.728 90.567 135.265 90.076 134.659 89.998C126.77 88.9564 120.042 86.5246 115.721 83.1566C115.254 82.7941 114.597 82.7941 114.13 83.1566C112.265 84.6112 109.952 85.8867 107.291 86.9559V78.715C107.291 72.6078 102.275 67.6385 96.1124 67.6385H93.3502C93.4427 66.7667 93.4936 65.8857 93.4936 65.0047V57.6311C93.4936 43.4989 81.8985 32.0002 67.6432 32.0002C53.3879 32.0002 41.7975 43.499 41.7975 57.6311V65.0047C41.7975 65.8811 41.8484 66.7621 41.9363 67.6385H39.1694C33.011 67.6385 28 72.6078 28 78.715V115.202C28 121.309 33.011 126.279 39.1694 126.279H96.1081C98.4169 126.279 100.652 125.567 102.526 124.255C105.681 127.687 109.684 130.257 114.495 131.927C114.634 131.973 114.777 132 114.921 132C115.064 132 115.208 131.977 115.346 131.927C123.407 129.123 129.194 123.805 132.545 116.124C135.432 109.508 136.52 101.111 135.77 91.1677L135.774 91.1681ZM44.3738 65.0051V57.6315C44.3738 44.9077 54.8121 34.5556 67.6432 34.5556C80.4742 34.5556 90.9209 44.9071 90.9209 57.6315V65.0051C90.9209 65.8861 90.8654 66.7671 90.7636 67.6389H81.6949V57.6315C81.6949 49.9504 75.393 43.7014 67.6479 43.7014C63.9233 43.7014 60.4021 45.1559 57.737 47.7989C55.0673 50.4418 53.6005 53.9337 53.6005 57.632V67.6394H44.5318C44.43 66.763 44.3791 65.882 44.3791 65.0056L44.3738 65.0051ZM79.1174 67.6389H56.1678V57.6315C56.1678 51.3591 61.3176 46.2521 67.6426 46.2521C73.9676 46.2521 79.1174 51.3591 79.1174 57.6315V67.6389ZM96.1125 123.724H39.1739C34.4359 123.724 30.577 119.901 30.577 115.198V78.7114C30.577 74.0128 34.4313 70.186 39.1739 70.186H96.1125C100.855 70.186 104.714 74.0082 104.714 78.7114V87.8837C101.827 88.8244 98.6203 89.5402 95.1917 89.9945C94.5856 90.0725 94.1229 90.5634 94.0766 91.1645C93.3224 101.108 94.4051 109.504 97.2923 116.121C98.2778 118.379 99.4763 120.434 100.878 122.279C99.4715 123.215 97.8151 123.72 96.1078 123.72L96.1125 123.724ZM114.926 129.367C101.494 124.481 95.3213 112.041 96.5757 92.3802C104.016 91.2698 110.457 88.9434 114.926 85.7545C119.395 88.9434 125.841 91.2698 133.276 92.3802C134.521 112.041 128.353 124.481 114.926 129.367ZM129.302 94.7929C123.995 93.6917 119.377 92.0214 115.574 89.8281C115.176 89.5987 114.681 89.5987 114.283 89.8281C110.475 92.0169 105.857 93.6871 100.55 94.7929C99.9623 94.9168 99.5366 95.4215 99.5273 96.0181C99.2405 111.348 104.247 121.379 114.412 125.839C114.578 125.912 114.754 125.949 114.935 125.949C115.11 125.949 115.291 125.912 115.457 125.839C125.614 121.379 130.62 111.344 130.333 96.0181C130.324 95.4216 129.899 94.9122 129.311 94.7929H129.302ZM114.926 123.269C106.246 119.199 102.035 110.618 102.086 97.0729C106.954 95.9808 111.266 94.4116 114.926 92.4018C118.586 94.4115 122.894 95.9808 127.761 97.0729C127.807 110.622 123.606 119.203 114.926 123.269ZM111.849 111.252L121.815 101.368C122.32 100.868 123.134 100.868 123.634 101.368C124.138 101.869 124.138 102.676 123.634 103.176L112.483 114.235C112.242 114.473 111.914 114.606 111.571 114.606C111.516 114.606 111.46 114.602 111.405 114.597C111.007 114.547 110.655 114.313 110.456 113.968L106.01 106.329C105.654 105.718 105.866 104.938 106.482 104.585C107.097 104.232 107.884 104.443 108.24 105.053L111.849 111.247L111.849 111.252Z"/> </mask> <path d="M83.5825 92.1637L73.0331 91.1818L68.8272 81.5323C68.6236 81.0642 68.1609 80.7614 67.6474 80.7614C67.1338 80.7614 66.6711 81.0642 66.4675 81.5323L62.2616 91.1818L51.7169 92.1637C51.2033 92.2096 50.773 92.5583 50.611 93.0401C50.4537 93.5219 50.5971 94.0541 50.9858 94.3936L58.9348 101.341L56.6168 111.596C56.5057 112.091 56.7001 112.61 57.1165 112.908C57.5329 113.206 58.0881 113.234 58.5277 112.972L67.6427 107.618L76.7578 112.972C76.9614 113.092 77.1881 113.151 77.4148 113.151C77.6832 113.151 77.9469 113.069 78.1736 112.908C78.59 112.61 78.7844 112.091 78.6733 111.596L76.3599 101.341L84.3089 94.3936C84.693 94.0587 84.841 93.5264 84.6837 93.0401C84.5264 92.5583 84.0915 92.2096 83.5779 92.1637L83.5825 92.1637ZM74.088 99.9228C73.7364 100.23 73.5791 100.703 73.6809 101.162L75.5085 109.274L68.2998 105.039C68.0962 104.92 67.8695 104.86 67.6428 104.86C67.4161 104.86 67.1894 104.92 66.9858 105.039L59.777 109.274L61.6093 101.166C61.7111 100.712 61.5584 100.239 61.2022 99.9274L54.9142 94.435L63.2519 93.6595C63.7193 93.6182 64.1264 93.3246 64.3115 92.8933L67.6383 85.2626L70.9651 92.8933C71.1501 93.32 71.5573 93.6137 72.0246 93.6595L80.367 94.435L74.079 99.9274L74.088 99.9228ZM135.774 91.1681C135.728 90.567 135.265 90.076 134.659 89.998C126.77 88.9564 120.042 86.5246 115.721 83.1566C115.254 82.7941 114.597 82.7941 114.13 83.1566C112.265 84.6112 109.952 85.8867 107.291 86.9559V78.715C107.291 72.6078 102.275 67.6385 96.1124 67.6385H93.3502C93.4427 66.7667 93.4936 65.8857 93.4936 65.0047V57.6311C93.4936 43.4989 81.8985 32.0002 67.6432 32.0002C53.3879 32.0002 41.7975 43.499 41.7975 57.6311V65.0047C41.7975 65.8811 41.8484 66.7621 41.9363 67.6385H39.1694C33.011 67.6385 28 72.6078 28 78.715V115.202C28 121.309 33.011 126.279 39.1694 126.279H96.1081C98.4169 126.279 100.652 125.567 102.526 124.255C105.681 127.687 109.684 130.257 114.495 131.927C114.634 131.973 114.777 132 114.921 132C115.064 132 115.208 131.977 115.346 131.927C123.407 129.123 129.194 123.805 132.545 116.124C135.432 109.508 136.52 101.111 135.77 91.1677L135.774 91.1681ZM44.3738 65.0051V57.6315C44.3738 44.9077 54.8121 34.5556 67.6432 34.5556C80.4742 34.5556 90.9209 44.9071 90.9209 57.6315V65.0051C90.9209 65.8861 90.8654 66.7671 90.7636 67.6389H81.6949V57.6315C81.6949 49.9504 75.393 43.7014 67.6479 43.7014C63.9233 43.7014 60.4021 45.1559 57.737 47.7989C55.0673 50.4418 53.6005 53.9337 53.6005 57.632V67.6394H44.5318C44.43 66.763 44.3791 65.882 44.3791 65.0056L44.3738 65.0051ZM79.1174 67.6389H56.1678V57.6315C56.1678 51.3591 61.3176 46.2521 67.6426 46.2521C73.9676 46.2521 79.1174 51.3591 79.1174 57.6315V67.6389ZM96.1125 123.724H39.1739C34.4359 123.724 30.577 119.901 30.577 115.198V78.7114C30.577 74.0128 34.4313 70.186 39.1739 70.186H96.1125C100.855 70.186 104.714 74.0082 104.714 78.7114V87.8837C101.827 88.8244 98.6203 89.5402 95.1917 89.9945C94.5856 90.0725 94.1229 90.5634 94.0766 91.1645C93.3224 101.108 94.4051 109.504 97.2923 116.121C98.2778 118.379 99.4763 120.434 100.878 122.279C99.4715 123.215 97.8151 123.72 96.1078 123.72L96.1125 123.724ZM114.926 129.367C101.494 124.481 95.3213 112.041 96.5757 92.3802C104.016 91.2698 110.457 88.9434 114.926 85.7545C119.395 88.9434 125.841 91.2698 133.276 92.3802C134.521 112.041 128.353 124.481 114.926 129.367ZM129.302 94.7929C123.995 93.6917 119.377 92.0214 115.574 89.8281C115.176 89.5987 114.681 89.5987 114.283 89.8281C110.475 92.0169 105.857 93.6871 100.55 94.7929C99.9623 94.9168 99.5366 95.4215 99.5273 96.0181C99.2405 111.348 104.247 121.379 114.412 125.839C114.578 125.912 114.754 125.949 114.935 125.949C115.11 125.949 115.291 125.912 115.457 125.839C125.614 121.379 130.62 111.344 130.333 96.0181C130.324 95.4216 129.899 94.9122 129.311 94.7929H129.302ZM114.926 123.269C106.246 119.199 102.035 110.618 102.086 97.0729C106.954 95.9808 111.266 94.4116 114.926 92.4018C118.586 94.4115 122.894 95.9808 127.761 97.0729C127.807 110.622 123.606 119.203 114.926 123.269ZM111.849 111.252L121.815 101.368C122.32 100.868 123.134 100.868 123.634 101.368C124.138 101.869 124.138 102.676 123.634 103.176L112.483 114.235C112.242 114.473 111.914 114.606 111.571 114.606C111.516 114.606 111.46 114.602 111.405 114.597C111.007 114.547 110.655 114.313 110.456 113.968L106.01 106.329C105.654 105.718 105.866 104.938 106.482 104.585C107.097 104.232 107.884 104.443 108.24 105.053L111.849 111.247L111.849 111.252Z" fill="#5fb0c2"/> <path d="M83.5825 92.1637L73.0331 91.1818L68.8272 81.5323C68.6236 81.0642 68.1609 80.7614 67.6474 80.7614C67.1338 80.7614 66.6711 81.0642 66.4675 81.5323L62.2616 91.1818L51.7169 92.1637C51.2033 92.2096 50.773 92.5583 50.611 93.0401C50.4537 93.5219 50.5971 94.0541 50.9858 94.3936L58.9348 101.341L56.6168 111.596C56.5057 112.091 56.7001 112.61 57.1165 112.908C57.5329 113.206 58.0881 113.234 58.5277 112.972L67.6427 107.618L76.7578 112.972C76.9614 113.092 77.1881 113.151 77.4148 113.151C77.6832 113.151 77.9469 113.069 78.1736 112.908C78.59 112.61 78.7844 112.091 78.6733 111.596L76.3599 101.341L84.3089 94.3936C84.693 94.0587 84.841 93.5264 84.6837 93.0401C84.5264 92.5583 84.0915 92.2096 83.5779 92.1637L83.5825 92.1637ZM74.088 99.9228C73.7364 100.23 73.5791 100.703 73.6809 101.162L75.5085 109.274L68.2998 105.039C68.0962 104.92 67.8695 104.86 67.6428 104.86C67.4161 104.86 67.1894 104.92 66.9858 105.039L59.777 109.274L61.6093 101.166C61.7111 100.712 61.5584 100.239 61.2022 99.9274L54.9142 94.435L63.2519 93.6595C63.7193 93.6182 64.1264 93.3246 64.3115 92.8933L67.6383 85.2626L70.9651 92.8933C71.1501 93.32 71.5573 93.6137 72.0246 93.6595L80.367 94.435L74.079 99.9274L74.088 99.9228ZM135.774 91.1681C135.728 90.567 135.265 90.076 134.659 89.998C126.77 88.9564 120.042 86.5246 115.721 83.1566C115.254 82.7941 114.597 82.7941 114.13 83.1566C112.265 84.6112 109.952 85.8867 107.291 86.9559V78.715C107.291 72.6078 102.275 67.6385 96.1124 67.6385H93.3502C93.4427 66.7667 93.4936 65.8857 93.4936 65.0047V57.6311C93.4936 43.4989 81.8985 32.0002 67.6432 32.0002C53.3879 32.0002 41.7975 43.499 41.7975 57.6311V65.0047C41.7975 65.8811 41.8484 66.7621 41.9363 67.6385H39.1694C33.011 67.6385 28 72.6078 28 78.715V115.202C28 121.309 33.011 126.279 39.1694 126.279H96.1081C98.4169 126.279 100.652 125.567 102.526 124.255C105.681 127.687 109.684 130.257 114.495 131.927C114.634 131.973 114.777 132 114.921 132C115.064 132 115.208 131.977 115.346 131.927C123.407 129.123 129.194 123.805 132.545 116.124C135.432 109.508 136.52 101.111 135.77 91.1677L135.774 91.1681ZM44.3738 65.0051V57.6315C44.3738 44.9077 54.8121 34.5556 67.6432 34.5556C80.4742 34.5556 90.9209 44.9071 90.9209 57.6315V65.0051C90.9209 65.8861 90.8654 66.7671 90.7636 67.6389H81.6949V57.6315C81.6949 49.9504 75.393 43.7014 67.6479 43.7014C63.9233 43.7014 60.4021 45.1559 57.737 47.7989C55.0673 50.4418 53.6005 53.9337 53.6005 57.632V67.6394H44.5318C44.43 66.763 44.3791 65.882 44.3791 65.0056L44.3738 65.0051ZM79.1174 67.6389H56.1678V57.6315C56.1678 51.3591 61.3176 46.2521 67.6426 46.2521C73.9676 46.2521 79.1174 51.3591 79.1174 57.6315V67.6389ZM96.1125 123.724H39.1739C34.4359 123.724 30.577 119.901 30.577 115.198V78.7114C30.577 74.0128 34.4313 70.186 39.1739 70.186H96.1125C100.855 70.186 104.714 74.0082 104.714 78.7114V87.8837C101.827 88.8244 98.6203 89.5402 95.1917 89.9945C94.5856 90.0725 94.1229 90.5634 94.0766 91.1645C93.3224 101.108 94.4051 109.504 97.2923 116.121C98.2778 118.379 99.4763 120.434 100.878 122.279C99.4715 123.215 97.8151 123.72 96.1078 123.72L96.1125 123.724ZM114.926 129.367C101.494 124.481 95.3213 112.041 96.5757 92.3802C104.016 91.2698 110.457 88.9434 114.926 85.7545C119.395 88.9434 125.841 91.2698 133.276 92.3802C134.521 112.041 128.353 124.481 114.926 129.367ZM129.302 94.7929C123.995 93.6917 119.377 92.0214 115.574 89.8281C115.176 89.5987 114.681 89.5987 114.283 89.8281C110.475 92.0169 105.857 93.6871 100.55 94.7929C99.9623 94.9168 99.5366 95.4215 99.5273 96.0181C99.2405 111.348 104.247 121.379 114.412 125.839C114.578 125.912 114.754 125.949 114.935 125.949C115.11 125.949 115.291 125.912 115.457 125.839C125.614 121.379 130.62 111.344 130.333 96.0181C130.324 95.4216 129.899 94.9122 129.311 94.7929H129.302ZM114.926 123.269C106.246 119.199 102.035 110.618 102.086 97.0729C106.954 95.9808 111.266 94.4116 114.926 92.4018C118.586 94.4115 122.894 95.9808 127.761 97.0729C127.807 110.622 123.606 119.203 114.926 123.269ZM111.849 111.252L121.815 101.368C122.32 100.868 123.134 100.868 123.634 101.368C124.138 101.869 124.138 102.676 123.634 103.176L112.483 114.235C112.242 114.473 111.914 114.606 111.571 114.606C111.516 114.606 111.46 114.602 111.405 114.597C111.007 114.547 110.655 114.313 110.456 113.968L106.01 106.329C105.654 105.718 105.866 104.938 106.482 104.585C107.097 104.232 107.884 104.443 108.24 105.053L111.849 111.247L111.849 111.252Z" stroke="#5fb0c2" stroke-width="3"/> </svg>