<svg fill="none" xmlns="http://www.w3.org/2000/svg" viewBox="40.35 35.35 83.3 93.3"> <path d="M85.1565 36.8486V36.8496C85.4239 36.8429 85.6856 36.9337 85.8928 37.0967L85.9788 37.1719L85.9807 37.1729L100.731 51.833L100.734 51.8359C100.943 52.054 101.064 52.3524 101.056 52.6582V78.7656C101.172 78.7723 101.287 78.7957 101.398 78.8389L101.401 78.8398L121.432 87.0938H121.431C121.859 87.2654 122.153 87.7113 122.15 88.1699C122.15 96.731 121.066 105.139 117.917 112.115C114.766 119.097 109.458 124.623 101.293 127.106L101.292 127.107C101.183 127.139 101.07 127.152 100.957 127.152C100.855 127.152 100.745 127.139 100.642 127.106V127.105C94.3519 125.19 89.7638 121.475 86.5452 116.672H43.0002C42.3941 116.672 41.8509 116.129 41.8508 115.522V38.0059L41.8499 37.998C41.8501 37.522 42.2308 36.8486 43.0002 36.8486H85.1565ZM82.1194 88.8955C82.1822 97.0017 83.2782 104.841 86.137 111.175C89.0342 117.593 93.655 122.439 100.968 124.77C108.282 122.44 112.935 117.594 115.832 111.175C118.691 104.842 119.754 97.0062 119.817 88.8955L100.968 81.1455L82.1194 88.8955ZM44.1497 114.368H85.1526C84.8614 113.837 84.5801 113.297 84.3147 112.745L84.0188 112.111C82.8891 109.604 82.0239 106.923 81.3801 104.105H66.1868V104.104C65.5841 104.127 65.0177 103.614 64.9905 103.01C64.9634 102.404 65.4802 101.833 66.0872 101.806H80.9143C80.1282 97.514 79.7991 92.967 79.7883 88.3828H66.1868V88.3818C65.5839 88.4048 65.0176 87.8908 64.9905 87.2861C64.9636 86.6809 65.4794 86.1104 66.0862 86.083H82.9377L98.7561 79.5693V53.8125H85.1565C84.5502 53.8125 84.0061 53.2684 84.0061 52.6621V39.1523H44.1506L44.1497 114.368ZM110.393 94.4629C110.878 94.4183 111.27 94.7496 111.459 95.1426C111.649 95.5357 111.664 96.0495 111.328 96.4023L111.327 96.4014L99.7356 108.999C99.5154 109.235 99.1991 109.349 98.8909 109.349C98.5836 109.349 98.2692 109.236 98.0491 109.001L92.7991 103.627V103.626C92.5528 103.421 92.4237 103.113 92.4075 102.806C92.391 102.493 92.4897 102.164 92.7219 101.932L92.8137 101.851C93.0362 101.675 93.321 101.599 93.595 101.613C93.9035 101.63 94.2134 101.761 94.4202 102.011L98.8401 106.553L109.64 94.8545C109.829 94.6357 110.105 94.4941 110.39 94.4629H110.393ZM61.0061 95.4932C61.4631 95.5097 61.8086 95.8472 61.9661 96.2324C62.1228 96.6161 62.112 97.0961 61.8 97.4287L61.801 97.4297L55.4573 104.742L55.4563 104.741C55.2471 104.988 54.937 105.115 54.6292 105.128C54.3205 105.141 53.9993 105.04 53.7698 104.812L50.6135 101.688V101.687C50.1805 101.261 50.171 100.488 50.5959 100.054C50.9944 99.6468 51.7003 99.6141 52.1448 99.9619L52.2307 100.036V100.037L54.553 102.329L60.0422 95.9209C60.2039 95.7244 60.4359 95.5823 60.6868 95.5283L60.8411 95.5029C60.8938 95.4969 60.9474 95.4932 61.0002 95.4932H61.0061ZM61.0618 79.7705L61.0725 79.7822C61.4981 79.826 61.8199 80.1464 61.97 80.5137C62.1266 80.8971 62.1153 81.3764 61.804 81.709L61.8049 81.71L55.4612 89.0537L55.4592 89.0557C55.2454 89.2969 54.9316 89.4163 54.6233 89.4229C54.3158 89.4294 53.9976 89.3243 53.7727 89.0938L50.6165 85.9688C50.183 85.5395 50.179 84.7727 50.6038 84.3389C50.9987 83.9322 51.6964 83.8961 52.1428 84.2393L52.2288 84.3125L52.2297 84.3145L54.553 86.6064L60.0422 80.1982C60.204 80.0017 60.4358 79.8596 60.6868 79.8057L60.8411 79.7803C60.8937 79.7743 60.9475 79.7705 61.0002 79.7705H61.0618ZM60.7932 64.0801C61.2757 64.0189 61.6801 64.336 61.884 64.7217C62.0877 65.107 62.1211 65.6178 61.8 65.9824L61.801 65.9834L55.4573 73.3252L55.4583 73.3262C55.249 73.5743 54.9368 73.7012 54.6282 73.7139C54.3198 73.7264 53.9991 73.6254 53.7698 73.3984L50.6125 70.2412H50.6116C50.3645 70.0358 50.2352 69.7264 50.219 69.4189C50.2025 69.1059 50.302 68.7773 50.5344 68.5449C50.7665 68.3109 51.0936 68.2102 51.4065 68.2266C51.714 68.2428 52.0229 68.3738 52.2297 68.6221L54.5227 70.8838L60.0422 64.4756C60.2311 64.2552 60.5074 64.1121 60.7932 64.0801ZM91.4993 70.3604C92.1136 70.3526 92.6653 70.9006 92.6653 71.5107C92.6652 72.1212 92.1093 72.667 91.4993 72.6592V72.6602H66.1877V72.6592C65.5848 72.6824 65.0177 72.1692 64.9905 71.5645C64.9634 70.959 65.4802 70.3875 66.0872 70.3604H91.4993ZM86.3069 51.5127H97.1379L86.3069 40.7373V51.5127Z" fill="white" stroke="#5fb0c2" stroke-width="3"/> </svg>