<svg fill="none" xmlns="http://www.w3.org/2000/svg" viewBox="32.97 29.5 98.07 105"> <path d="M42.1394 31.0002C37.9223 31.0002 34.4658 34.4427 34.4658 38.6567V71.6972V117.969C34.4658 122.183 37.9223 125.629 42.1394 125.629H96.1467V131.248C96.1499 131.574 96.2433 131.892 96.4166 132.167C96.5899 132.443 96.8362 132.665 97.1281 132.809C97.42 132.953 97.7462 133.013 98.0702 132.982C98.3942 132.952 98.7034 132.832 98.9634 132.636L109.011 124.952L119.058 132.636C119.318 132.836 119.628 132.959 119.954 132.992C120.28 133.024 120.609 132.965 120.903 132.821C121.198 132.676 121.446 132.453 121.62 132.175C121.794 131.897 121.887 131.576 121.888 131.248V111.412C126.547 107.674 129.534 101.934 129.534 95.5081C129.534 84.8573 121.331 76.0828 110.907 75.1905V38.6567C110.907 34.4427 107.45 31.0002 103.233 31.0002H42.1394ZM42.1394 34.5176H103.233C105.567 34.5176 107.389 36.3348 107.389 38.6567V75.1905C96.9705 76.0893 88.7581 84.8619 88.7581 95.5081C88.7581 101.812 91.6356 107.454 96.1467 111.195V122.108H42.1394C39.8058 122.108 37.9832 120.291 37.9832 117.969V71.6972V38.6567C37.9832 36.3348 39.8058 34.5176 42.1394 34.5176ZM53.5743 49.669C53.3434 49.6681 53.1145 49.7127 52.9008 49.8003C52.687 49.8878 52.4927 50.0166 52.3287 50.1793C52.1648 50.3419 52.0345 50.5353 51.9452 50.7484C51.856 50.9614 51.8096 51.1899 51.8087 51.4209C51.8078 51.653 51.8529 51.883 51.9413 52.0976C52.0297 52.3122 52.1597 52.5072 52.3238 52.6713C52.488 52.8355 52.683 52.9655 52.8976 53.0539C53.1122 53.1423 53.3422 53.1873 53.5743 53.1864H91.8084C92.0393 53.1855 92.2679 53.1391 92.4809 53.0499C92.6939 52.9607 92.8873 52.8304 93.05 52.6664C93.2126 52.5025 93.3414 52.3081 93.429 52.0944C93.5165 51.8807 93.5611 51.6518 93.5602 51.4209C93.5584 50.9568 93.3732 50.5123 93.0451 50.1841C92.717 49.856 92.2724 49.6708 91.8084 49.669H53.5743ZM53.5743 68.2966C53.3434 68.2957 53.1145 68.3403 52.9008 68.4279C52.687 68.5154 52.4927 68.6442 52.3287 68.8069C52.1648 68.9695 52.0345 69.1629 51.9452 69.3759C51.856 69.589 51.8096 69.8175 51.8087 70.0484C51.8078 70.2805 51.8529 70.5105 51.9413 70.7252C52.0297 70.9398 52.1597 71.1348 52.3238 71.2989C52.488 71.463 52.683 71.593 52.8976 71.6815C53.1122 71.7699 53.3422 71.8149 53.5743 71.814H91.8084C92.0393 71.8131 92.2679 71.7667 92.4809 71.6775C92.6939 71.5883 92.8873 71.458 93.05 71.294C93.2126 71.1301 93.3414 70.9357 93.429 70.722C93.5165 70.5083 93.5611 70.2794 93.5602 70.0484C93.5584 69.5844 93.3732 69.1399 93.0451 68.8117C92.717 68.4836 92.2724 68.2984 91.8084 68.2966H53.5743ZM109.155 78.6323C118.496 78.6323 126.017 86.1682 126.017 95.5081C126.017 101.025 123.393 105.91 119.319 108.983C119.156 109.066 119.008 109.174 118.879 109.303C116.134 111.238 112.782 112.374 109.154 112.374C105.415 112.374 101.963 111.167 99.1691 109.121C99.0402 108.986 98.8905 108.872 98.7258 108.784C94.7957 105.701 92.2751 100.908 92.2751 95.508C92.2751 86.1681 99.8138 78.6323 109.155 78.6323ZM53.5743 86.9139C53.3422 86.913 53.1122 86.958 52.8976 87.0464C52.683 87.1348 52.488 87.2649 52.3238 87.429C52.1597 87.5931 52.0297 87.7881 51.9413 88.0027C51.8529 88.2173 51.8078 88.4473 51.8087 88.6795C51.8096 88.9104 51.856 89.1389 51.9452 89.352C52.0345 89.565 52.1648 89.7584 52.3287 89.921C52.4927 90.0837 52.687 90.2125 52.9008 90.3C53.1145 90.3876 53.3434 90.4322 53.5743 90.4313H80.3598C80.8239 90.4295 81.2684 90.2443 81.5965 89.9162C81.9247 89.588 82.1098 89.1435 82.1116 88.6795C82.1125 88.4485 82.0679 88.2196 81.9804 88.0059C81.8928 87.7922 81.7641 87.5978 81.6014 87.4339C81.4387 87.2699 81.2453 87.1396 81.0323 87.0504C80.8193 86.9612 80.5908 86.9148 80.3598 86.9139H53.5743ZM116.955 88.8855C116.723 88.886 116.494 88.9324 116.28 89.022C116.066 89.1116 115.872 89.2427 115.709 89.4076L107.259 97.8713L102.869 93.4815C102.705 93.3177 102.511 93.1877 102.298 93.0991C102.084 93.0104 101.855 92.9648 101.624 92.9648C101.392 92.9648 101.163 93.0104 100.95 93.0991C100.736 93.1877 100.542 93.3177 100.379 93.4815C100.214 93.6449 100.084 93.8392 99.9949 94.0532C99.9059 94.2671 99.8601 94.4966 99.8601 94.7283C99.8601 94.9601 99.9059 95.1895 99.9949 95.4035C100.084 95.6175 100.214 95.8118 100.379 95.9752L106.012 101.598C106.341 101.926 106.787 102.11 107.252 102.11C107.716 102.11 108.162 101.926 108.492 101.598L118.202 91.898C118.366 91.7346 118.496 91.5405 118.585 91.3269C118.673 91.1132 118.719 90.8841 118.719 90.6528C118.719 90.4215 118.673 90.1924 118.585 89.9787C118.496 89.7651 118.366 89.571 118.202 89.4076C118.039 89.2427 117.845 89.1116 117.631 89.022C117.417 88.9324 117.187 88.886 116.955 88.8855ZM99.6641 113.545C102.501 115.041 105.731 115.891 109.155 115.891C112.47 115.891 115.601 115.095 118.371 113.686V127.68L110.089 121.342C109.782 121.106 109.405 120.978 109.017 120.978C108.63 120.978 108.253 121.106 107.946 121.342L99.6641 127.68V113.545Z" fill="#5fb0c2" stroke="#5fb0c2" stroke-width="3"/> </svg>