<svg width="34" height="36" viewBox="0 0 34 36" fill="none" xmlns="http://www.w3.org/2000/svg">
<path d="M15.29 0.347656C17.3812 0.0489888 19.513 0.43775 21.3643 1.45508C23.2156 2.47246 24.6867 4.06376 25.5557 5.98926L25.6035 6.0957L25.7168 6.12695C27.3592 6.58276 28.7774 7.62549 29.7031 9.05664C30.6289 10.4878 30.9979 12.2087 30.7402 13.8936C30.4825 15.5785 29.6159 17.1102 28.3047 18.1992C26.9935 19.2883 25.3286 19.8587 23.625 19.8027H18.083V25.5293L18.249 25.5889C18.9131 25.8253 19.5162 26.2067 20.0146 26.7051C20.5131 27.2035 20.8944 27.8067 21.1309 28.4707L21.1904 28.6367H31.667C32.0426 28.6368 32.4024 28.7862 32.668 29.0518C32.9336 29.3174 33.0829 29.6771 33.083 30.0527C33.083 30.4285 32.9336 30.789 32.668 31.0547C32.4024 31.3202 32.0425 31.4696 31.667 31.4697H21.1914L21.1318 31.6348C20.799 32.5517 20.1914 33.3435 19.3926 33.9033C18.5938 34.4631 17.6424 34.7636 16.667 34.7637C15.6915 34.7637 14.7393 34.4632 13.9404 33.9033C13.1418 33.3435 12.535 32.5515 12.2021 31.6348L12.1416 31.4697H1.66699C1.29127 31.4697 0.930716 31.3204 0.665039 31.0547C0.399364 30.789 0.25 30.4285 0.25 30.0527C0.250087 29.6772 0.399542 29.3173 0.665039 29.0518C0.930715 28.7861 1.29127 28.6367 1.66699 28.6367H12.1426L12.2021 28.4707C12.4385 27.8067 12.82 27.2035 13.3184 26.7051C13.8168 26.2067 14.4199 25.8253 15.084 25.5889L15.25 25.5293V19.8027H8.33398C6.98569 19.8008 5.68329 19.311 4.66797 18.4238C3.65277 17.5367 2.99234 16.3123 2.80957 14.9766C2.62682 13.6407 2.93415 12.2835 3.67383 11.1562C4.41349 10.0292 5.53597 9.20778 6.83398 8.84375L6.99121 8.7998L7.01465 8.6377C7.30981 6.54602 8.27616 4.60632 9.76855 3.11133C11.261 1.61644 13.1989 0.64639 15.29 0.347656ZM17.4004 28.2822C17.0503 28.1372 16.6647 28.099 16.293 28.1729C15.9212 28.2468 15.5796 28.4302 15.3115 28.6982C15.0437 28.9662 14.8611 29.3072 14.7871 29.6787C14.7132 30.0503 14.7506 30.436 14.8955 30.7861C15.0405 31.1363 15.2865 31.4359 15.6016 31.6465C15.9168 31.8571 16.2879 31.9697 16.667 31.9697C17.1751 31.9696 17.6621 31.7675 18.0215 31.4082C18.3809 31.0488 18.583 30.5611 18.583 30.0527C18.5829 29.6739 18.4712 29.3033 18.2607 28.9883C18.0502 28.6731 17.7505 28.4273 17.4004 28.2822ZM20.2266 4.10449C18.819 3.2596 17.1567 2.94285 15.5371 3.21094C13.9175 3.47914 12.4459 4.31489 11.3857 5.56836C10.3258 6.82173 9.74572 8.4113 9.75 10.0527C9.75 10.4285 9.60064 10.789 9.33496 11.0547C9.06928 11.3204 8.70873 11.4697 8.33301 11.4697C7.60378 11.4698 6.90432 11.7597 6.38867 12.2754C5.87305 12.7911 5.58301 13.4905 5.58301 14.2197C5.58301 14.949 5.87305 15.6484 6.38867 16.1641C6.90432 16.6797 7.60378 16.9696 8.33301 16.9697H23.6182C24.7125 16.9649 25.7603 16.5277 26.5342 15.7539C27.308 14.9801 27.7452 13.9322 27.75 12.8379C27.7548 11.8639 27.4128 10.9196 26.7852 10.1748C26.1575 9.43013 25.2849 8.93364 24.3242 8.77344H24.3252C24.0724 8.73007 23.8361 8.61827 23.6416 8.45117C23.4472 8.28406 23.3016 8.06749 23.2207 7.82422L23.2197 7.82324L23.1152 7.53418C22.5609 6.10463 21.5461 4.89662 20.2266 4.10449Z" fill="#46A4B9" stroke="white" stroke-width="0.5"/>
</svg>
