<svg width="60" height="60" viewBox="0 0 60 60" fill="none" xmlns="http://www.w3.org/2000/svg">
<path d="M59.9965 30.4123C59.9965 46.7269 46.5392 60 29.9983 60C13.4573 60 0 46.7269 0 30.4123C0 14.0977 13.4573 0.824588 29.9983 0.824588C34.4561 0.824588 38.8623 1.81084 42.8556 3.68155L41.8105 1.33999C41.5976 0.856402 41.8169 0.296463 42.3072 0.0801227C42.7975 -0.129855 43.3652 0.0864857 43.5846 0.57007L45.8232 5.58407C45.9393 5.83859 45.9328 6.13129 45.8103 6.3858C45.6877 6.64032 45.4554 6.82485 45.1845 6.89484L39.8042 8.26287C39.7203 8.28196 39.6429 8.29469 39.559 8.29469C39.1268 8.29469 38.7332 8.00836 38.6236 7.57568C38.4881 7.06664 38.8042 6.54488 39.3203 6.41126L42.4685 5.60952C38.6171 3.72609 34.34 2.72711 30.0047 2.72711C14.5217 2.73347 1.93537 15.1476 1.93537 30.4123C1.93537 45.677 14.5217 58.0911 29.9983 58.0911C45.4748 58.0911 58.0612 45.677 58.0612 30.4123C58.0612 25.6401 56.8096 20.9315 54.442 16.802C54.1775 16.3438 54.3453 15.7584 54.8097 15.5039C55.2742 15.243 55.8677 15.4085 56.1258 15.8666C58.6547 20.2825 59.9965 25.3092 59.9965 30.4123ZM29.0306 5.43136V9.08369H30.966V5.43136H29.0306ZM18.1731 8.30105L16.4958 9.25549L18.3473 12.4179L20.0247 11.4634L18.1731 8.30105ZM8.54789 17.0946L7.58021 18.749L10.7865 20.5752L11.7542 18.9208L8.54789 17.0946ZM4.6707 29.4579V31.3667H8.37371V29.4579H4.6707ZM11.7542 41.9038L10.7865 40.2494L7.58021 42.0756L8.54789 43.7299L11.7542 41.9038ZM18.1731 52.5235L20.0247 49.3612L18.3473 48.4067L16.4958 51.5691L18.1731 52.5235ZM30.966 55.3932V51.7409H29.0306V55.3932H30.966ZM41.8234 52.5235L43.5007 51.5691L41.6492 48.4067L39.9719 49.3612L41.8234 52.5235ZM48.2424 41.9038L51.4486 43.7299L52.4163 42.0756L49.2101 40.2494L48.2424 41.9038ZM55.3258 29.4579H51.6228V31.3667H55.3258V29.4579ZM26.1598 29.5851L58.3837 1.06638C58.7579 0.735506 59.3321 0.741869 59.6998 1.08547C60.0675 1.42907 60.0998 1.98901 59.7836 2.37715L27.7532 41.3311C27.5726 41.5538 27.3017 41.6811 27.0113 41.6874H26.9984C26.7146 41.6874 26.4436 41.5665 26.2565 41.3502L14.6121 27.7717C14.3347 27.4472 14.3089 26.9763 14.5475 26.6263C14.7862 26.27 15.2378 26.1173 15.6507 26.2509L26.1598 29.5851ZM26.0953 31.5704L18.2764 29.0888L26.9855 39.2377L50.5842 10.5344L27.0371 31.3731C26.7791 31.6022 26.4243 31.6785 26.0953 31.5704Z" fill="#75C6D1"/>
</svg>
