<svg width="54" height="21" viewBox="0 0 54 21" fill="none" xmlns="http://www.w3.org/2000/svg">
<path d="M0.121367 20.1314L2.02805e-05 20.2109L0.15902 20.4536L0.280366 20.3741L0.200867 20.2527L0.121367 20.1314ZM53.7424 0.302417C53.7511 0.22277 53.6936 0.151158 53.614 0.142468L52.316 0.000853658C52.2364 -0.00783652 52.1648 0.0496855 52.1561 0.129333C52.1474 0.20898 52.2049 0.280591 52.2846 0.289281L53.4383 0.415161L53.3124 1.56887C53.3037 1.64852 53.3612 1.72013 53.4409 1.72882C53.5205 1.73751 53.5921 1.67999 53.6008 1.60034L53.7424 0.302417ZM39.7011 11.154L39.7365 11.0133L39.7011 11.154ZM40.2063 11.0437L40.2972 11.1568L40.2063 11.0437ZM28.7355 8.65079L28.8319 8.75922L28.7355 8.65079ZM29.2629 8.52183L29.2274 8.6625L29.2629 8.52183ZM19.5146 16.5646L19.4922 16.7079L19.5146 16.5646ZM19.9896 16.4249L20.0859 16.5334L19.9896 16.4249ZM8.27611 14.9623L8.19661 14.8409L8.27611 14.9623ZM8.68358 14.8743L8.66122 15.0177L8.68358 14.8743ZM0.200867 20.2527L0.280366 20.3741L8.35561 15.0836L8.27611 14.9623L8.19661 14.8409L0.121367 20.1314L0.200867 20.2527ZM8.68358 14.8743L8.66122 15.0177L19.4922 16.7079L19.5146 16.5646L19.5369 16.4212L8.70595 14.731L8.68358 14.8743ZM19.9896 16.4249L20.0859 16.5334L28.8319 8.75922L28.7355 8.65079L28.6391 8.54236L19.8932 16.3165L19.9896 16.4249ZM29.2629 8.52183L29.2274 8.6625L39.6656 11.2947L39.7011 11.154L39.7365 11.0133L29.2984 8.38116L29.2629 8.52183ZM40.2063 11.0437L40.2972 11.1568L53.6891 0.399783L53.5982 0.286682L53.5074 0.173581L40.1155 10.9306L40.2063 11.0437ZM39.7011 11.154L39.6656 11.2947C39.8861 11.3503 40.1199 11.2992 40.2972 11.1568L40.2063 11.0437L40.1155 10.9306C40.0091 11.0161 39.8688 11.0467 39.7365 11.0133L39.7011 11.154ZM28.7355 8.65079L28.8319 8.75922C28.9396 8.66348 29.0877 8.62726 29.2274 8.6625L29.2629 8.52183L29.2984 8.38116C29.0655 8.32244 28.8186 8.3828 28.6391 8.54236L28.7355 8.65079ZM19.5146 16.5646L19.4922 16.7079C19.7063 16.7413 19.924 16.6773 20.0859 16.5334L19.9896 16.4249L19.8932 16.3165C19.796 16.4029 19.6654 16.4413 19.5369 16.4212L19.5146 16.5646ZM8.27611 14.9623L8.35561 15.0836C8.44579 15.0246 8.55469 15.001 8.66122 15.0177L8.68358 14.8743L8.70595 14.731C8.52842 14.7033 8.34692 14.7425 8.19661 14.8409L8.27611 14.9623Z" fill="white"/>
</svg>
