<svg width="1440" height="1117" viewBox="0 0 1440 1117" fill="none" xmlns="http://www.w3.org/2000/svg">
<path d="M0.132833 0L0.610746 2.92105L1.58767 7.22336L3.21686 12.5092L5.65155 18.3808L9.045 24.4403L13.5505 30.29L19.3212 35.5322L26.5104 39.7692L35.2714 42.603L45.7574 43.636H197.282L198.055 43.661L200.228 43.8359L203.581 44.3104L207.892 45.2344L212.94 46.7579L218.507 49.0305L224.371 52.2022L230.311 56.4228L236.107 61.8422L241.539 68.6102L242.101 69.2526L243.693 71.0628L246.177 73.865L249.412 77.4837L253.26 81.7431L257.579 86.4675L262.232 91.4814L267.079 96.6088L271.98 101.674L276.795 106.502L281.213 109.854L285.616 112.417L290.005 114.293L294.377 115.585L298.736 116.396L303.079 116.829L307.408 116.987L311.721 116.972L316.019 116.887L320.303 116.837H1440V1116.17H320.303L316.019 1116.23L311.721 1116.31L307.408 1116.32L303.08 1116.17L298.736 1115.73L294.378 1114.92L290.005 1113.63L285.617 1111.75L281.213 1109.19L276.796 1105.84L271.992 1101.02L267.102 1095.97L262.266 1090.85L257.621 1085.85L253.308 1081.13L249.462 1076.88L246.224 1073.25L243.732 1070.44L242.124 1068.62L241.54 1067.95L236.108 1061.18L230.312 1055.76L224.372 1051.54L218.508 1048.37L212.941 1046.1L207.892 1044.57L203.581 1043.65L200.228 1043.17L198.055 1043L197.282 1042.97H45.7574L34.2685 1041.72L24.868 1038.32L17.3489 1033.3L11.504 1027.21L7.1262 1020.58L4.00869 1013.96L1.94433 1007.87L0.726129 1002.85L0.147028 999.447L0 998.193L0 0H0.132833Z" fill="#F7F7F7"/>
</svg>
