<svg width="60" height="50" viewBox="0 0 60 50" fill="none" xmlns="http://www.w3.org/2000/svg">
<path d="M59.3366 48.9564H54.5632V10.5125C54.5632 9.27207 53.528 8.26264 52.2592 8.26264H47.7424C46.4706 8.26264 45.4384 9.27207 45.4384 10.5125V48.9564H41.1869V19.1467C41.1869 17.9063 40.1517 16.8969 38.8829 16.8969H34.3661C33.0943 16.8969 32.0621 17.9063 32.0621 19.1467V48.9564H27.8106L27.802 27.781C27.802 26.5406 26.7669 25.5312 25.498 25.5312H20.9812C19.7095 25.5312 18.6773 26.5406 18.6773 27.781V48.9564H14.4257L14.4228 36.4152C14.4228 35.1748 13.3877 34.1654 12.1189 34.1654H7.60209C6.33031 34.1654 5.29811 35.1748 5.29811 36.4152V48.9564H0.521822C0.233821 48.9564 0 49.1902 0 49.4782C0 49.7662 0.233821 50 0.521822 50H59.3367C59.6247 50 59.8585 49.7662 59.8585 49.4782C59.8585 49.1902 59.6246 48.9564 59.3366 48.9564ZM46.4794 10.5125C46.4794 9.84805 47.044 9.30915 47.7398 9.30915H52.2566C52.9523 9.30915 53.517 9.84808 53.517 10.5125V48.9564H46.4795L46.4794 10.5125ZM33.1002 19.1467C33.1002 18.4823 33.6648 17.9434 34.3606 17.9434H38.8774C39.5732 17.9434 40.1378 18.4823 40.1378 19.1467V48.9564H33.1003L33.1002 19.1467ZM19.7211 27.781C19.7211 27.1166 20.2857 26.5777 20.9815 26.5777H25.4983C26.194 26.5777 26.7586 27.1166 26.7586 27.781V48.9564H19.7212L19.7211 27.781ZM6.34193 36.4152C6.34193 35.7508 6.90653 35.2119 7.60232 35.2119H12.1191C12.8149 35.2119 13.3795 35.7509 13.3795 36.4152V48.9564H6.34201L6.34193 36.4152ZM5.84577 24.9121C5.81155 24.6241 6.01971 24.3675 6.30486 24.3333C20.149 22.7507 32.393 13.9653 38.3329 1.37599L33.8475 2.80173C33.5709 2.89012 33.2772 2.73614 33.1917 2.4624C33.1033 2.18866 33.2573 1.8921 33.531 1.80655L39.1371 0.024369C39.2711 -0.0184037 39.4194 -0.00414552 39.5448 0.0614392C39.6703 0.129875 39.7616 0.243935 39.7986 0.380807L41.3755 6.04673C41.4525 6.32617 41.29 6.61417 41.0134 6.69116C40.734 6.76816 40.446 6.60562 40.369 6.32903L39.177 2.04037C36.1886 8.27947 31.6575 13.7084 26.0461 17.7664C20.2804 21.9353 13.4969 24.5644 6.42484 25.3743C6.40488 25.3772 6.38492 25.3772 6.36496 25.3772C6.10261 25.3772 5.87714 25.1802 5.84577 24.9121Z" fill="#5FB0C2"/>
</svg>
