<svg width="60" height="63" viewBox="0 0 60 63" fill="none" xmlns="http://www.w3.org/2000/svg">
<path d="M40.1928 10.7791C36.6552 10.7791 33.4683 12.9109 32.1147 16.1778C30.7611 19.4416 31.5117 23.2038 34.0095 25.7018C36.5105 28.2028 40.2695 28.9502 43.5367 27.5967C46.8038 26.2431 48.9323 23.0563 48.9323 19.5217C48.9292 14.6952 45.0165 10.7823 40.1928 10.7791ZM40.1928 26.7503C37.2674 26.7472 34.6311 24.9876 33.5114 22.2837C32.3916 19.5828 33.0099 16.4728 35.0802 14.4024C37.1474 12.3352 40.2574 11.7169 42.9583 12.8366C45.6623 13.9564 47.4249 16.5926 47.4249 19.5181C47.4188 23.5109 44.1826 26.7442 40.1928 26.7503ZM59.062 16.116L55.2999 15.5838L55.2968 15.5869C54.9369 14.1904 54.3832 12.8552 53.6542 11.6125L55.9367 8.57629C56.1612 8.2779 56.1336 7.85647 55.869 7.59192L52.1161 3.84209C51.8516 3.57447 51.4301 3.54678 51.1317 3.77134L48.0955 6.05382C46.8528 5.32477 45.5177 4.77107 44.1211 4.41118L43.5889 0.649069V0.645992C43.5366 0.276852 43.2198 0 42.8476 0H37.5381C37.1628 0 36.846 0.276852 36.7937 0.645992L36.2615 4.41118C34.865 4.77109 33.5298 5.32483 32.2871 6.05382L29.2509 3.77133C28.9525 3.5437 28.5311 3.57446 28.2665 3.83901L24.8274 7.27817H24.2337C12.4858 7.27817 0 9.91448 0 14.8025V55.4665C0.0123046 56.3801 0.399899 57.2445 1.07359 57.8598C4.06979 60.9359 13.3751 63 24.2307 63C35.9786 63 48.4644 60.3637 48.4644 55.4757V33.2565L51.1314 35.2621V35.2652C51.4298 35.4898 51.8512 35.459 52.1158 35.1945L55.8687 31.4416C56.1332 31.177 56.164 30.7586 55.9364 30.4572L53.6539 27.421C54.3829 26.1813 54.9366 24.8432 55.2965 23.4496L59.0586 22.9175H59.0617C59.4339 22.8652 59.7108 22.5452 59.7077 22.17V16.8636C59.7077 16.4883 59.4339 16.1714 59.0617 16.1191L59.062 16.116ZM7.83767 10.7358C13.1902 9.35463 18.7059 8.69943 24.2302 8.78244H24.5994L26.725 11.6094H26.7281C25.9959 12.8521 25.4422 14.1903 25.0823 15.5838L21.3202 16.116C20.948 16.1683 20.6712 16.4882 20.6712 16.8604V20.7364C16.0262 20.6103 11.4149 19.8874 6.95137 18.5923C3.53994 17.491 1.50347 16.0729 1.50347 14.7994C1.50347 13.3998 3.87247 11.8802 7.83767 10.7358ZM24.5137 31.4415L27.3868 34.3146C26.3471 34.3546 25.2951 34.3761 24.2307 34.3761C14.0822 34.3761 4.79526 32.4074 2.15005 29.6911C1.76861 29.3589 1.53482 28.8883 1.50406 28.3837V17.562C4.77706 20.3428 12.874 21.9024 20.6812 22.2439C20.715 22.5884 20.9796 22.8652 21.321 22.9145L25.0862 23.4466H25.0832C25.4461 24.8401 25.9968 26.1783 26.7289 27.418L24.4464 30.4542H24.4433C24.2187 30.7556 24.2492 31.177 24.5137 31.4415ZM46.9574 41.916C46.9574 43.3187 44.5888 44.8383 40.6266 45.9796C35.2741 47.3608 29.7584 48.0191 24.2309 47.933C14.0825 47.933 4.79549 45.9643 2.15029 43.2481C1.76885 42.9189 1.53506 42.4452 1.50737 41.9407V31.1433C4.89424 33.9949 13.8553 35.8836 24.2338 35.8836H24.2307C28.2758 35.899 32.3151 35.5822 36.3046 34.93L36.7937 38.3876C36.846 38.7598 37.1628 39.0367 37.5381 39.0367H42.8476C43.2229 39.0367 43.5397 38.7598 43.592 38.3876L44.1242 34.6255C45.1024 34.3702 46.0529 34.0226 46.9605 33.5858L46.9574 41.916ZM30.7893 34.1025L32.2843 32.9766L32.2874 32.9797C32.7918 33.275 33.3087 33.5396 33.8439 33.7764C32.8534 33.9087 31.8321 34.0194 30.7924 34.1056L30.7893 34.1025ZM40.6266 59.5395C35.2741 60.9207 29.7584 61.5789 24.2309 61.4959C14.0825 61.4959 4.7955 59.5272 2.15029 56.811V56.8079C1.76885 56.4757 1.53506 56.002 1.5043 55.4974V44.7C4.89117 47.5516 13.8523 49.4404 24.2307 49.4404C33.5326 49.4404 43.2936 47.7854 46.9571 44.6723V55.476C46.9571 56.8787 44.5918 58.3982 40.6266 59.5395ZM58.2037 21.5183L54.5799 22.029C54.2692 22.072 54.02 22.3058 53.9524 22.6104C53.5986 24.1915 52.9772 25.6958 52.1098 27.0615C51.9406 27.3261 51.956 27.6675 52.1436 27.9197L54.34 30.8421L51.5131 33.669L48.5969 31.4695C48.3446 31.2819 48.0063 31.2665 47.7417 31.4357C46.3728 32.3032 44.8686 32.9246 43.2875 33.2783C42.983 33.346 42.7492 33.5982 42.7061 33.9089L42.1955 37.5327L38.1934 37.5296L37.6797 33.9058V33.9089C37.6366 33.5982 37.4059 33.346 37.0983 33.2783C35.5202 32.9245 34.0129 32.3031 32.6471 31.4357C32.3826 31.2665 32.0411 31.2819 31.792 31.4695L28.8696 33.666L26.0427 30.839L28.2422 27.9167H28.2391C28.4298 27.6675 28.4421 27.326 28.2729 27.0615C27.4085 25.6957 26.7841 24.1884 26.4334 22.6104C26.3627 22.3058 26.1135 22.072 25.8028 22.029L22.1791 21.5183V17.5193L25.8028 17.0056C26.1135 16.9625 26.3627 16.7318 26.4334 16.4242C26.7841 14.8462 27.4086 13.3388 28.276 11.973C28.4421 11.7085 28.4298 11.367 28.2391 11.1179L26.0427 8.19558L28.8696 5.36862L31.792 7.56503C32.0411 7.75575 32.3826 7.76805 32.6471 7.59887C34.0129 6.73443 35.5202 6.11002 37.0983 5.75935C37.4059 5.6886 37.6366 5.43943 37.6797 5.12874L38.1934 1.50499H42.1924L42.703 5.12874C42.7461 5.43943 42.9768 5.6886 43.2844 5.75935C44.8625 6.11003 46.3698 6.73451 47.7356 7.60194C48.0001 7.76805 48.3416 7.75574 48.5938 7.56502L51.5161 5.36861L54.3431 8.19557L52.1405 11.1179C51.9529 11.3671 51.9406 11.7085 52.1098 11.97C52.9742 13.3358 53.5986 14.8431 53.9524 16.4211C54.02 16.7288 54.2692 16.9595 54.5799 17.0025L58.2036 17.5163L58.2037 21.5183ZM13.9557 27.7076C13.9004 28.0767 13.5835 28.3474 13.2113 28.3474C13.1744 28.3474 13.1344 28.3443 13.0975 28.3382C11.2456 28.0644 9.41224 27.6799 7.60651 27.1877C7.20661 27.0739 6.97282 26.6586 7.08357 26.2587C7.19738 25.8588 7.61266 25.625 8.01258 25.7358C9.75988 26.2157 11.5348 26.5879 13.3251 26.8555C13.7342 26.917 14.0173 27.2985 13.9557 27.7076ZM13.9557 54.9566C13.9004 55.3226 13.5835 55.5964 13.2113 55.5964C13.1744 55.5964 13.1344 55.5933 13.0975 55.5872C11.2456 55.3134 9.41224 54.9289 7.60651 54.4337C7.20969 54.3198 6.97897 53.9046 7.08972 53.5077C7.20046 53.1109 7.61266 52.8771 8.01259 52.9848C9.75989 53.4616 11.5348 53.8338 13.3251 54.0984C13.7343 54.1599 14.0173 54.5444 13.9557 54.9535L13.9557 54.9566ZM13.9557 41.3321C13.9004 41.7012 13.5835 41.9719 13.2113 41.9719C13.1744 41.9719 13.1344 41.9688 13.0975 41.9627C11.2456 41.6889 9.41224 41.3044 7.60651 40.8092C7.20969 40.6953 6.97897 40.2831 7.08972 39.8832C7.20046 39.4864 7.61266 39.2526 8.01259 39.3603C9.75989 39.8371 11.5348 40.2093 13.3251 40.4739C13.7373 40.5385 14.0173 40.9199 13.9557 41.3321Z" fill="#5FB0C2"/>
</svg>
