<svg width="60" height="65" viewBox="0 0 60 65" fill="none" xmlns="http://www.w3.org/2000/svg">
<path d="M58.2145 28.6894C58.3855 29.9689 58.4742 31.2769 58.4742 32.5723C58.4742 48.5373 45.4856 61.5162 29.5303 61.5162C28.6562 61.5162 27.7789 61.4592 26.9048 61.3863L29.8628 64.0055C30.0972 64.2177 30.1225 64.5724 29.9103 64.8068C29.7963 64.9367 29.6443 65 29.4796 65C29.3497 65 29.2135 64.9525 29.1059 64.8543L25.0267 61.2533C24.9063 61.1488 24.8398 60.9936 24.8335 60.8321C24.8335 60.6706 24.8968 60.5154 25.0204 60.4109L29.0172 56.7212C29.2453 56.509 29.6095 56.528 29.8185 56.7529C30.0307 56.9809 30.0117 57.3451 29.7868 57.5541L26.8763 60.2367C27.7504 60.319 28.6372 60.376 29.5208 60.376C44.8526 60.376 57.3313 47.8974 57.3313 32.5656C57.3313 31.3177 57.2489 30.0605 57.0811 28.8347C57.0399 28.5275 57.2584 28.2362 57.5688 28.195C57.8823 28.1633 58.167 28.3822 58.2145 28.6894ZM1.40341 36.952C1.42874 36.952 1.45091 36.952 1.47625 36.9425C1.78346 36.9013 2.00199 36.6195 1.96398 36.3028C1.80246 35.0708 1.71378 33.8229 1.71378 32.5719C1.71378 17.2401 14.1924 4.76144 29.5242 4.76144C30.3097 4.76144 31.0983 4.80895 31.8837 4.87545L28.723 7.38059C28.4791 7.57378 28.438 7.93167 28.6343 8.17553C28.7483 8.31489 28.9099 8.39406 29.0809 8.39406C29.2012 8.39406 29.3311 8.35289 29.4293 8.27371L33.6953 4.90072C33.8252 4.80254 33.898 4.65052 33.9075 4.49533C33.917 4.33381 33.86 4.17862 33.746 4.06461L29.9518 0.17223C29.7333 -0.0558012 29.3754 -0.055801 29.1505 0.162728C28.9225 0.381257 28.9225 0.739142 29.141 0.964003L31.8489 3.74472C31.0793 3.68138 30.3001 3.64021 29.5305 3.64021C13.5655 3.64021 0.586632 16.6288 0.586632 32.5841C0.586632 33.8826 0.675315 35.1874 0.846332 36.467C0.878002 36.7394 1.12153 36.952 1.40341 36.952ZM59.6334 15.9034V18.1236C59.6334 19.1054 58.8954 19.9066 57.9136 19.989L56.2826 20.1284C55.9089 20.16 55.627 20.3722 55.4813 20.7206C55.3356 21.069 55.3926 21.4174 55.627 21.7024L56.6817 22.9503C57.3151 23.704 57.2739 24.7903 56.5771 25.4871L55.0126 27.0517C54.3158 27.7484 53.2295 27.7896 52.4757 27.1562L51.2279 26.1015C50.9428 25.8577 50.5945 25.8101 50.2461 25.9558C49.8977 26.1015 49.6855 26.3866 49.6539 26.7571L49.5145 28.3881C49.4322 29.3699 48.6309 30.1079 47.6491 30.1079H45.4289C44.4472 30.1079 43.6459 29.3699 43.5635 28.3881L43.4241 26.7571C43.3925 26.3834 43.1803 26.1015 42.8319 25.9558C42.5659 25.8418 42.2966 25.8513 42.0528 25.9717V44.3917C42.0528 47.9199 36.5706 50.6752 29.5839 50.6752C28.4089 50.6752 27.256 50.577 26.1381 50.4155C26.0082 51.258 25.3273 51.9072 24.4532 51.9801L22.8221 52.1194C22.4484 52.1511 22.1666 52.3633 22.0209 52.7117C21.8752 53.06 21.9322 53.4084 22.1666 53.6934L23.2212 54.9413C23.8546 55.6951 23.8135 56.7814 23.1167 57.4781L21.5521 59.0427C20.8554 59.7395 19.7691 59.7806 19.0153 59.1472L17.7674 58.0925C17.4824 57.8487 17.134 57.8012 16.7857 57.9469C16.4373 58.0925 16.2251 58.3776 16.1934 58.7481L16.0541 60.3792C15.9717 61.3609 15.1705 62.0989 14.1886 62.0989L11.9843 62.1021C11.0025 62.1021 10.2012 61.3641 10.1189 60.3823L9.9795 58.7513C9.94783 58.3776 9.73563 58.0957 9.38725 57.95C9.03887 57.8043 8.69049 57.8613 8.40548 58.0957L7.15761 59.1504C6.41018 59.7838 5.31756 59.7426 4.62078 59.0459L3.05622 57.4813C2.35946 56.7845 2.31828 55.6982 2.9517 54.9445L4.00636 53.6966C4.25023 53.4116 4.29774 53.0632 4.15205 52.7148C4.00636 52.3665 3.72133 52.1542 3.35078 52.1226L1.71974 51.9832C0.737969 51.9009 0 51.0996 0 50.1178V47.8976C0 46.9159 0.737937 46.1146 1.71974 46.0322L3.35078 45.8929C3.7245 45.8612 4.00636 45.649 4.15205 45.3006C4.29774 44.9522 4.24073 44.6038 4.00636 44.3188L2.9517 43.071C2.31828 42.3172 2.35946 41.2309 3.05622 40.5341L4.62078 38.9696C5.31754 38.2728 6.40384 38.2316 7.15761 38.8651L8.40548 39.9197C8.69052 40.1636 9.0389 40.2111 9.38725 40.0654C9.73563 39.9197 9.94783 39.6347 9.9795 39.2641L10.1189 37.6331C10.2012 36.6513 11.0024 35.9134 11.9843 35.9134H14.2044C15.1862 35.9134 15.9875 36.6513 16.0699 37.6331L16.2092 39.2641C16.2409 39.6379 16.4531 39.9197 16.8015 40.0654C16.9155 40.1129 17.0295 40.1287 17.134 40.1383V20.5402C17.134 17.012 22.6162 14.2566 29.603 14.2566C31.1042 14.2566 32.561 14.396 33.9482 14.6462C34.2554 14.3042 34.6862 14.0793 35.1802 14.0381L36.8112 13.8988C37.185 13.8671 37.4668 13.6549 37.6125 13.3065C37.7582 12.9581 37.7012 12.6097 37.4668 12.3247L36.4122 11.0769C35.7788 10.3231 35.8199 9.23682 36.5167 8.54004L38.0812 6.97549C38.778 6.27872 39.8643 6.23755 40.6181 6.87097L41.8659 7.92563C42.151 8.16949 42.4994 8.217 42.8477 8.07132C43.1961 7.92563 43.4083 7.64059 43.44 7.27004L43.5793 5.639C43.6617 4.65723 44.4629 3.91927 45.4448 3.91927L47.6586 3.92243C48.6404 3.92243 49.4416 4.66037 49.524 5.64217L49.6634 7.27321C49.695 7.64693 49.9072 7.92879 50.2556 8.07448C50.604 8.22017 50.9524 8.16317 51.2374 7.92879L52.4852 6.87414C53.239 6.24072 54.3253 6.28189 55.0221 6.97865L56.5866 8.54321C57.2834 9.23997 57.3246 10.3263 56.6912 11.08L55.6365 12.3279C55.3926 12.6129 55.3451 12.9613 55.4908 13.3097C55.6365 13.6581 55.9215 13.8703 56.2921 13.9019L57.9231 14.0413C58.8954 14.1205 59.6334 14.9216 59.6334 15.9034ZM18.2586 20.5433C18.2586 23.3335 23.4463 25.693 29.5933 25.693C31.9369 25.693 34.1413 25.3509 36.0478 24.727C35.8546 24.1348 35.9655 23.4634 36.3962 22.9503L37.4508 21.7024C37.6947 21.4174 37.7422 21.069 37.5965 20.7207C37.4508 20.3723 37.1658 20.1601 36.7953 20.1284L35.1642 19.9891C34.1824 19.9067 33.4445 19.1055 33.4445 18.1236V15.9035C33.4445 15.8401 33.454 15.7831 33.4603 15.7166C32.2188 15.5044 30.914 15.3936 29.5774 15.3936C23.4554 15.3936 18.2586 17.7531 18.2586 20.5433ZM25.0457 47.8972C25.0457 47.5077 24.7543 47.191 24.3743 47.1593L22.7433 47.02C21.9483 46.9566 21.2927 46.4689 20.9823 45.731C20.6751 44.993 20.7955 44.1918 21.3149 43.5837L22.3695 42.3359C22.6197 42.0445 22.6039 41.6138 22.3284 41.3382L20.7638 39.7736C20.4883 39.4981 20.0576 39.4823 19.7662 39.7325L18.5183 40.7871C17.9102 41.297 17.1089 41.4269 16.371 41.1197C15.6331 40.8125 15.1454 40.1537 15.0821 39.3682L14.9427 37.7372C14.911 37.3476 14.5943 37.0658 14.2048 37.0658H11.9846C11.5951 37.0658 11.2784 37.3571 11.2467 37.7372L11.1073 39.3682C11.044 40.1632 10.5563 40.8188 9.81836 41.1292C9.08043 41.4364 8.26962 41.316 7.6711 40.7966L6.42324 39.742C6.13186 39.4918 5.70114 39.5076 5.42558 39.7831L3.86102 41.3477C3.58549 41.6232 3.56964 42.0539 3.81985 42.3453L4.87451 43.5932C5.38441 44.2013 5.51426 45.0026 5.20705 45.7405C4.89985 46.4784 4.2411 46.9661 3.44613 47.0294L1.81509 47.1688C1.42554 47.2005 1.14367 47.5172 1.14367 47.9067V50.1269C1.14367 50.5164 1.43505 50.8331 1.81509 50.8648L3.44613 51.0042C4.24107 51.0675 4.89669 51.5552 5.20705 52.2931C5.51427 53.0311 5.39391 53.8323 4.87451 54.4404L3.81985 55.6883C3.56965 55.9796 3.58549 56.4104 3.86102 56.6859L5.42558 58.2505C5.70111 58.526 6.13183 58.5419 6.42324 58.2916L7.6711 57.237C8.06066 56.9139 8.52307 56.7429 9.00126 56.7429C9.2768 56.7429 9.55234 56.7999 9.82152 56.9044C10.5595 57.2117 11.0472 57.8704 11.1105 58.6654L11.2499 60.2964C11.2815 60.686 11.5982 60.9678 11.9878 60.9678H14.2079C14.5975 60.9678 14.9142 60.6764 14.9459 60.2964L15.0852 58.6654C15.1486 57.8704 15.6363 57.2148 16.3742 56.9044C17.1121 56.5972 17.9134 56.7176 18.5215 57.237L19.7693 58.2916C20.0607 58.5418 20.4914 58.526 20.767 58.2505L22.3315 56.6859C22.6071 56.4104 22.6229 55.9797 22.3727 55.6883L21.3181 54.4404C20.8082 53.8323 20.6783 53.031 20.9855 52.2931C21.2927 51.5552 21.9515 51.0675 22.7369 51.0042L24.368 50.8648C24.7575 50.8331 25.0394 50.5164 25.0394 50.1269V47.8972L25.0457 47.8972ZM40.9386 39.3744C38.9844 41.5407 34.7026 43.007 29.6039 43.007C27.4946 43.007 25.4613 42.7315 23.6371 42.2438C23.5737 42.5351 23.4439 42.8202 23.2412 43.0704L22.1865 44.3182C21.9427 44.6033 21.8952 44.9516 22.0409 45.3C22.1865 45.6484 22.4716 45.8606 22.8421 45.8922L24.4732 46.0316C25.4549 46.1139 26.1929 46.9152 26.1929 47.897V49.2747C27.2951 49.4362 28.4383 49.5344 29.6134 49.5344C35.7575 49.5344 40.9481 47.1749 40.9481 44.3847L40.9449 39.3743L40.9386 39.3744ZM40.9386 31.2856C38.9844 33.4519 34.7026 34.9183 29.6039 34.9183C24.5049 34.9183 20.2167 33.4424 18.2693 31.2856V39.5133L19.0325 38.8641C19.7863 38.2307 20.8726 38.2718 21.5694 38.9686L23.1339 40.5331C23.2796 40.6788 23.3936 40.8499 23.4823 41.0272C25.316 41.5783 27.4222 41.8697 29.6043 41.8697C35.7485 41.8697 40.939 39.5102 40.939 36.72L40.9386 31.2856ZM40.9386 28.6316V26.8801L40.6155 27.1462C39.8681 27.7796 38.7755 27.7384 38.0787 27.0417L36.7326 25.6956C34.6424 26.424 32.191 26.8136 29.5971 26.8136C24.4981 26.8136 20.21 25.3377 18.2625 23.1809V28.6283C18.2625 31.4185 23.4502 33.7781 29.5971 33.7781C35.7476 33.7812 40.9386 31.4219 40.9386 28.6316ZM58.5 15.9032C58.5 15.5136 58.2086 15.1969 57.8286 15.1653L56.1975 15.0259C55.4026 14.9626 54.747 14.4748 54.4366 13.7369C54.1294 12.999 54.2497 12.1978 54.7691 11.5897L55.8238 10.3418C56.074 10.0504 56.0582 9.6197 55.7826 9.34414L54.2181 7.77959C53.9425 7.50405 53.5118 7.48821 53.2204 7.73842L51.9725 8.79307C51.3645 9.30298 50.5632 9.43283 49.8253 9.12562C49.0874 8.81841 48.5996 8.15966 48.5363 7.3647L48.397 5.73682C48.3653 5.34727 48.0486 5.0654 47.659 5.0654H45.4389C45.0493 5.0654 44.7326 5.35678 44.7009 5.73682L44.5616 7.36786C44.4982 8.1628 44.0105 8.81842 43.2726 9.12879C42.5347 9.436 41.7334 9.31565 41.1254 8.79624L39.8775 7.74158C39.5861 7.49138 39.1554 7.50722 38.8798 7.78275L37.3153 9.34731C37.0397 9.62284 37.0239 10.0536 37.2741 10.345L38.3288 11.5928C38.8387 12.2009 38.9685 13.0022 38.6613 13.7401C38.3541 14.478 37.6954 14.9657 36.9099 15.0291L35.2788 15.1684C34.8893 15.2001 34.6074 15.5168 34.6074 15.9064V18.1265C34.6074 18.5161 34.8988 18.8328 35.2788 18.8644L36.9099 19.0038C37.7048 19.0671 38.3604 19.5549 38.6708 20.2928C38.978 21.0307 38.8577 21.8319 38.3382 22.44L37.2836 23.6879C37.0334 23.9793 37.0492 24.41 37.3248 24.6856L38.8893 26.2501C39.1649 26.5256 39.5956 26.5415 39.887 26.2913L41.1348 25.2366C41.5244 24.9136 41.9868 24.7425 42.465 24.7425C42.7405 24.7425 43.0161 24.7996 43.2853 24.9136C44.0232 25.2208 44.5109 25.8795 44.5742 26.6745L44.7136 28.3055C44.7453 28.6951 45.062 28.977 45.4515 28.977L47.659 28.9738C48.0486 28.9738 48.3653 28.6824 48.397 28.3024L48.5363 26.6713C48.5997 25.8764 49.0874 25.2208 49.8253 24.9104C50.5632 24.6032 51.3645 24.7235 51.9725 25.243L53.2204 26.2976C53.5118 26.5478 53.9425 26.532 54.2181 26.2564L55.7826 24.6919C56.0582 24.4163 56.074 23.9856 55.8238 23.6942L54.7691 22.4464C54.2592 21.8383 54.1294 21.037 54.4366 20.2991C54.7438 19.5612 55.4026 19.0735 56.1975 19.0101L57.8286 18.8708C58.2181 18.8391 58.5 18.5224 58.5 18.1328L58.5 15.9032ZM52.15 19.6087C52.1025 19.7227 52.0518 19.8272 51.9885 19.9412C51.9631 19.9824 51.9409 20.0299 51.9156 20.0711C51.8428 20.2104 51.7604 20.3371 51.6717 20.467C51.6622 20.4765 51.6622 20.4828 51.6559 20.4923C51.4437 20.809 51.1935 21.1099 50.918 21.3918C50.0502 22.2596 48.9734 22.8359 47.7952 23.0703H47.7857C47.6083 23.1115 47.4215 23.1337 47.2409 23.1527C47.2156 23.1527 47.1934 23.1622 47.1681 23.1622C46.9559 23.1875 46.7532 23.1939 46.5442 23.1939C46.332 23.1939 46.123 23.1843 45.9203 23.1622C45.8949 23.1622 45.8728 23.1527 45.8474 23.1527C45.6606 23.1273 45.4832 23.1052 45.3027 23.0703C44.1277 22.8265 43.0478 22.2501 42.1799 21.3855C41.3121 20.5177 40.7452 19.4472 40.5013 18.2722V18.2564C40.4697 18.0854 40.4443 17.908 40.419 17.7307C40.419 17.699 40.4095 17.6737 40.4032 17.642C40.3778 17.4393 40.3715 17.2271 40.3715 17.0181C40.3715 16.8059 40.381 16.5968 40.4032 16.3942C40.4032 16.3625 40.4127 16.3371 40.419 16.3055C40.4443 16.1281 40.4665 15.9571 40.5013 15.7797C40.5013 15.7702 40.5013 15.7702 40.5108 15.7639C40.7547 14.5952 41.3311 13.5184 42.1894 12.6602C42.4744 12.3751 42.7721 12.1344 43.0889 11.9222C43.0984 11.9222 43.0984 11.9127 43.1047 11.9064C43.2346 11.8177 43.3644 11.7449 43.5006 11.6625C43.5418 11.6372 43.5829 11.615 43.6304 11.5897C43.735 11.5327 43.849 11.4852 43.963 11.4282C44.0358 11.3965 44.1182 11.3553 44.191 11.3236C44.2734 11.292 44.362 11.2603 44.4412 11.235C44.5552 11.1938 44.6598 11.1526 44.7738 11.1209C44.8308 11.1051 44.8783 11.0956 44.9353 11.0798C45.081 11.0386 45.2203 11.0069 45.366 10.9753C45.3819 10.9753 45.3977 10.9658 45.4135 10.9658C45.7777 10.9024 46.161 10.8612 46.5473 10.8612C46.9369 10.8612 47.3169 10.9024 47.6907 10.9753C47.7065 10.9753 47.716 10.9753 47.7318 10.9848C47.8775 11.0164 48.0232 11.0481 48.1689 11.0893C48.2164 11.1051 48.2734 11.1146 48.3304 11.1304C48.4444 11.1621 48.5585 11.2033 48.663 11.2445C48.7453 11.2761 48.8245 11.3015 48.9068 11.3331C48.9892 11.3648 49.062 11.406 49.1412 11.4377C49.2457 11.4852 49.3597 11.5358 49.4642 11.5928C49.5118 11.6182 49.5529 11.6499 49.6036 11.6752C49.7335 11.748 49.8633 11.8304 49.9932 11.9096C50.0027 11.9191 50.009 11.9254 50.0185 11.9349C50.3352 12.1471 50.6361 12.3878 50.9116 12.6728C51.1872 12.9579 51.431 13.2492 51.6496 13.566L51.6749 13.5913C51.7636 13.7212 51.8364 13.851 51.9093 13.9809C51.9346 14.0284 51.9663 14.0696 51.9916 14.1202C52.0486 14.2247 52.0961 14.3388 52.1468 14.4433C52.1785 14.5256 52.2197 14.5985 52.2513 14.6776C52.283 14.76 52.3083 14.8392 52.34 14.9278C52.3812 15.0418 52.4224 15.1464 52.454 15.2604C52.4699 15.3079 52.4794 15.3649 52.4952 15.4219C52.5364 15.5676 52.5775 15.7133 52.5997 15.859C52.5997 15.8748 52.6092 15.8906 52.6092 15.9065C52.6821 16.2802 52.7232 16.6539 52.7232 17.0403C52.7232 17.4298 52.682 17.8099 52.6187 18.174C52.6187 18.1899 52.6092 18.2057 52.6092 18.2216C52.5775 18.3672 52.5459 18.5129 52.5047 18.6586C52.4888 18.7156 52.4793 18.7631 52.4635 18.8201C52.4318 18.9341 52.3907 19.0387 52.3495 19.1527C52.3178 19.235 52.2925 19.3237 52.2608 19.4029C52.2228 19.4567 52.1816 19.5295 52.15 19.6087ZM51.5672 17.5247C51.5831 17.3537 51.5926 17.1827 51.5926 17.0148C51.5926 16.8438 51.5831 16.6728 51.5672 16.5049C51.5672 16.4891 51.5577 16.4733 51.5577 16.4574C51.298 14.1233 49.4421 12.2642 47.108 12.0076C47.0921 12.0076 47.0763 11.9981 47.0604 11.9981C46.8894 11.9823 46.7184 11.9728 46.5505 11.9728C46.3795 11.9728 46.2085 11.9823 46.0406 11.9981C46.0248 11.9981 46.009 12.0076 45.9931 12.0076C43.659 12.2673 41.8094 14.117 41.5433 16.4511C41.5433 16.4669 41.5338 16.4923 41.5338 16.5081C41.518 16.6791 41.5085 16.8502 41.5085 17.018C41.5085 17.189 41.518 17.3601 41.5338 17.5279C41.5338 17.5438 41.5433 17.5596 41.5433 17.5849C41.803 19.9191 43.6685 21.7782 46.0121 22.0284H46.0374C46.2085 22.0442 46.3795 22.0537 46.5473 22.0537C46.7184 22.0537 46.8894 22.0442 47.0572 22.0284H47.0826C49.4262 21.7782 51.2916 19.9128 51.5513 17.5786C51.5577 17.5564 51.5672 17.5406 51.5672 17.5247ZM19.2659 49.0088C19.2659 52.4134 16.4915 55.1878 13.0869 55.1878C9.68228 55.1878 6.90789 52.4134 6.90789 49.0088C6.90789 45.6042 9.68228 42.8298 13.0869 42.8298C16.501 42.8298 19.2659 45.6042 19.2659 49.0088ZM18.129 49.0088C18.129 46.2281 15.8676 43.9668 13.0869 43.9668C10.3062 43.9668 8.04484 46.2281 8.04484 49.0088C8.04484 51.7895 10.3062 54.0509 13.0869 54.0509C15.8676 54.0509 18.129 51.7895 18.129 49.0088Z" fill="#5FB0C2"/>
</svg>
