<svg width="712" height="609" viewBox="0 0 712 609" fill="none" xmlns="http://www.w3.org/2000/svg">
<line y1="-0.527281" x2="148.265" y2="-0.527281" transform="matrix(1 9.03696e-08 8.4572e-08 -1 563.732 76.6313)" stroke="url(#paint0_linear_545_2634)" stroke-width="1.05456"/>
<line y1="-0.527281" x2="153.263" y2="-0.527281" transform="matrix(-1.1536e-08 -1 -1 1.23268e-08 637.529 153.263)" stroke="url(#paint1_linear_545_2634)" stroke-width="1.05456"/>
<path d="M638.271 116.632V738.105" stroke="url(#paint2_linear_545_2634)" stroke-width="0.842105"/>
<path d="M601.209 77.4738L0.000804067 77.4738" stroke="url(#paint3_linear_545_2634)" stroke-width="0.842105"/>
<foreignObject x="-1471.25" y="-2032.96" width="4218.57" height="4220.23"><div xmlns="http://www.w3.org/1999/xhtml" style="backdrop-filter:blur(1042.32px);clip-path:url(#bgblur_0_545_2634_clip_path);height:100%;width:100%"></div></foreignObject><path data-figma-bg-blur-radius="2084.63" d="M638.035 51.6736C638.035 65.7487 649.073 77.1588 662.689 77.1588C649.073 77.1588 638.035 88.569 638.035 102.644C638.035 88.569 626.997 77.1588 613.381 77.1588C626.997 77.1588 638.035 65.7487 638.035 51.6736Z" fill="white"/>
<defs>
<clipPath id="bgblur_0_545_2634_clip_path" transform="translate(1471.25 2032.96)"><path d="M638.035 51.6736C638.035 65.7487 649.073 77.1588 662.689 77.1588C649.073 77.1588 638.035 88.569 638.035 102.644C638.035 88.569 626.997 77.1588 613.381 77.1588C626.997 77.1588 638.035 65.7487 638.035 51.6736Z"/>
</clipPath><linearGradient id="paint0_linear_545_2634" x1="148.265" y1="0.5" x2="0" y2="0.5" gradientUnits="userSpaceOnUse">
<stop stop-color="white" stop-opacity="0"/>
<stop offset="0.275" stop-color="white"/>
<stop offset="0.5" stop-color="white"/>
<stop offset="0.74" stop-color="white"/>
<stop offset="1" stop-color="white" stop-opacity="0"/>
</linearGradient>
<linearGradient id="paint1_linear_545_2634" x1="153.263" y1="0.5" x2="0" y2="0.5" gradientUnits="userSpaceOnUse">
<stop stop-color="white" stop-opacity="0"/>
<stop offset="0.275" stop-color="white"/>
<stop offset="0.5" stop-color="white"/>
<stop offset="0.74" stop-color="white"/>
<stop offset="1" stop-color="white" stop-opacity="0"/>
</linearGradient>
<linearGradient id="paint2_linear_545_2634" x1="637.771" y1="116.632" x2="637.771" y2="738.105" gradientUnits="userSpaceOnUse">
<stop stop-color="white"/>
<stop offset="0.919393" stop-color="white" stop-opacity="0"/>
</linearGradient>
<linearGradient id="paint3_linear_545_2634" x1="601.209" y1="76.9738" x2="0.000793478" y2="76.9738" gradientUnits="userSpaceOnUse">
<stop stop-color="white"/>
<stop offset="0.919393" stop-color="white" stop-opacity="0"/>
</linearGradient>
</defs>
</svg>
