<svg width="61" height="68" viewBox="0 0 61 68" fill="none" xmlns="http://www.w3.org/2000/svg">
<path d="M30.5066 40.8528C41.8489 40.8528 51.0772 31.6898 51.0772 20.4264C51.0772 9.163 41.8481 0 30.5066 0C19.1612 0 9.93285 9.163 9.93285 20.4264C9.93285 31.6898 19.1619 40.8528 30.5066 40.8528ZM15.9761 32.8272C17.4279 31.997 19.137 31.3097 21.0269 30.7867C21.4618 32.1308 21.9764 33.3989 22.5798 34.5423C23.5814 36.4308 24.7545 37.9087 26.038 38.9366C22.0622 37.9909 18.5643 35.8105 15.9761 32.8272ZM29.8056 28.1957C27.0551 28.2413 24.4056 28.5606 21.9827 29.1202C21.3181 26.6661 20.9475 23.9505 20.8923 21.1226H29.8054L29.8056 28.1957ZM29.8056 29.5824V39.1829C27.5757 38.8606 25.4715 37.0177 23.8206 33.8976C23.2631 32.8453 22.7914 31.6837 22.3871 30.449C24.6782 29.926 27.1898 29.628 29.8056 29.5824ZM31.2054 39.1829V29.5824C33.8212 29.628 36.3298 29.926 38.6239 30.4461C38.2196 31.6807 37.7448 32.8424 37.1904 33.8946C35.5364 37.0177 33.4322 38.8605 31.2054 39.1829ZM31.2054 28.1959V21.1194H40.1154C40.0633 23.9476 39.6927 26.6632 39.025 29.117C36.6022 28.5575 33.956 28.2415 31.2054 28.1959ZM41.5127 21.1194H49.6605C49.5165 25.085 48.1473 28.7464 45.9175 31.7359C44.331 30.8053 42.4564 30.0359 40.3797 29.4581C41.0719 26.8915 41.4606 24.0601 41.5127 21.1194ZM41.5127 19.7328C41.4606 16.7921 41.0716 13.9639 40.3794 11.3973C42.456 10.8165 44.3306 10.0501 45.9172 9.11652C48.1502 12.1058 49.5162 15.7673 49.6602 19.733L41.5127 19.7328ZM40.116 19.7328H31.206V12.6624C33.9566 12.6168 36.606 12.2975 39.0258 11.7379C39.6905 14.1889 40.0609 16.9042 40.116 19.7328ZM31.206 11.2727V1.67223C33.4328 1.99458 35.537 3.8374 37.188 6.95757C37.7455 8.0098 38.2172 9.17148 38.6215 10.4061C36.3303 10.9292 33.8218 11.2271 31.206 11.2727ZM29.8062 1.67223V11.2727C27.1905 11.2271 24.6788 10.9291 22.3847 10.406C22.789 9.17141 23.2638 8.00972 23.8212 6.95749C25.4722 3.8374 27.5764 1.99461 29.8062 1.67223ZM29.8062 12.6593V19.7296L20.8931 19.7327C20.9452 16.9045 21.3158 14.1889 21.9835 11.7374C24.4063 12.297 27.0557 12.6136 29.8062 12.6593ZM19.4966 19.7327H11.3488C11.4928 15.7671 12.8619 12.1057 15.0948 9.11621C16.6814 10.0468 18.5529 10.8162 20.6326 11.397C19.9373 13.9606 19.5487 16.792 19.4966 19.7327ZM19.4966 21.1193C19.5487 24.06 19.9377 26.8913 20.633 29.4579C18.5563 30.0357 16.6817 30.8051 15.0951 31.7357C12.8622 28.7464 11.493 25.0849 11.3491 21.1192L19.4966 21.1193ZM34.9704 38.937C36.2538 37.9091 37.4269 36.4342 38.4286 34.5427C39.035 33.3992 39.5466 32.1311 39.9815 30.787C41.8714 31.3131 43.5805 32.0004 45.0324 32.8276C42.4441 35.8108 38.9462 37.9912 34.9704 38.937ZM45.0323 8.02179C43.5804 8.85199 41.8713 9.53925 39.9784 10.0654C39.5434 8.7212 39.0319 7.45309 38.4254 6.3097C37.4239 4.41513 36.2477 2.93722 34.9612 1.90936C38.943 2.8582 42.4439 5.03848 45.0323 8.02179ZM26.0479 1.91232C24.7615 2.94018 23.5853 4.41817 22.5837 6.30962C21.9772 7.45309 21.4657 8.7212 21.0307 10.0653C19.1409 9.53919 17.4318 8.85191 15.9799 8.02171C18.5651 5.03848 22.0659 2.85812 26.0479 1.91232ZM7.94259 49.6323C10.2398 49.6323 12.1082 47.7773 12.1082 45.4995C12.1082 43.2188 10.2398 41.3637 7.94259 41.3637C5.64841 41.3637 3.78001 43.2188 3.78001 45.4995C3.78001 47.7773 5.64841 49.6323 7.94259 49.6323ZM7.94259 42.7535C9.46794 42.7535 10.7115 43.9851 10.7115 45.5026C10.7115 47.017 9.471 48.2456 7.94259 48.2456C6.41724 48.2456 5.17982 47.014 5.17982 45.5026C5.17982 43.9851 6.41724 42.7535 7.94259 42.7535ZM14.2125 47.2725C14.2125 49.7175 16.2157 51.7033 18.6783 51.7033C21.1409 51.7033 23.1441 49.7144 23.1441 47.2725C23.1441 44.8275 21.1409 42.8387 18.6783 42.8387C16.2157 42.8387 14.2125 44.8275 14.2125 47.2725ZM21.7474 47.2725C21.7474 48.9511 20.3722 50.3166 18.6783 50.3166C16.9876 50.3166 15.6092 48.9512 15.6092 47.2725C15.6092 45.5938 16.9844 44.2254 18.6783 44.2254C20.3722 44.2284 21.7474 45.5938 21.7474 47.2725ZM53.066 49.8787C50.4869 49.8787 48.0764 51.1529 46.5909 53.233C45.335 52.5122 43.8802 52.0957 42.3272 52.0957C39.3959 52.0957 36.7128 53.5919 35.1353 56.0217C33.7631 55.2553 32.1857 54.8144 30.5042 54.8144C28.8196 54.8144 27.2421 55.2583 25.8699 56.0247C24.2924 53.5919 21.6093 52.0957 18.678 52.0957C17.125 52.0957 15.6702 52.5153 14.4143 53.233C12.9319 51.1529 10.5182 49.8787 7.93922 49.8787C3.56226 49.8787 0 53.4124 0 57.7548V58.9378C0 60.069 0.928085 60.9905 2.06749 60.9905H10.1079V61.8845C10.1079 63.0797 11.085 64.0497 12.2887 64.0497H21.0277C21.0277 64.1075 21.0185 64.1652 21.0185 64.226V65.6615C21.0185 66.9508 22.0753 68 23.3739 68H37.6261C38.9247 68 39.9815 66.9508 39.9815 65.6615V64.226C39.9815 64.1683 39.9723 64.1105 39.9723 64.0497H48.7113C49.9151 64.0497 50.8921 63.0796 50.8921 61.8845V60.9905H58.9325C60.0719 60.9905 61 60.069 61 58.9378V57.7548C61.0061 53.4123 57.4439 49.8787 53.067 49.8787H53.066ZM1.40263 58.9413V57.7583C1.40263 54.179 4.33697 51.2688 7.94204 51.2688C10.0585 51.2688 12.0403 52.3118 13.2655 54.0148C11.587 55.3772 10.4414 57.3569 10.178 59.6043H2.07337C1.70275 59.6043 1.40263 59.3062 1.40263 58.9413ZM12.2917 62.6666C11.8598 62.6666 11.5107 62.3169 11.5107 61.8911V60.6048C11.5107 56.6788 14.7268 53.4858 18.6811 53.4858C21.1406 53.4858 23.3919 54.7448 24.712 56.7944C22.8681 58.2146 21.5694 60.2886 21.1651 62.6667L12.2917 62.6666ZM38.5872 65.6651C38.5872 66.1881 38.1584 66.6139 37.6315 66.6139H23.3793C22.8525 66.6139 22.4237 66.1882 22.4237 65.6651V64.2297C22.4237 59.805 26.0502 56.2017 30.5095 56.2017C34.9661 56.2017 38.5899 59.8023 38.5899 64.2297L38.5872 65.6651ZM49.4974 61.8881C49.4974 62.3169 49.1452 62.6635 48.7164 62.6635L39.8433 62.6666C39.439 60.2885 38.1403 58.2145 36.2994 56.7943C37.6196 54.7447 39.8709 53.4857 42.3304 53.4857C46.2848 53.4857 49.5008 56.6788 49.5008 60.6047L49.4974 61.8881ZM59.6055 58.9413C59.6055 59.3062 59.3054 59.6042 58.9378 59.6042H50.8331C50.5667 57.3599 49.4211 55.3772 47.7457 54.0148C48.9709 52.3118 50.9526 51.2688 53.0691 51.2688C56.6743 51.2688 59.6086 54.1791 59.6086 57.7583L59.6055 58.9413ZM48.9007 45.4996C48.9007 47.7774 50.7691 49.6324 53.0664 49.6324C55.3605 49.6324 57.2289 47.7774 57.2289 45.4996C57.2289 43.2188 55.3605 41.3638 53.0664 41.3638C50.7691 41.3638 48.9007 43.2188 48.9007 45.4996ZM53.0664 42.7536C54.5917 42.7536 55.8291 43.9852 55.8291 45.5027C55.8291 47.0171 54.5887 48.2456 53.0664 48.2456C51.541 48.2456 50.2975 47.014 50.2975 45.5027C50.3005 43.9852 51.541 42.7536 53.0664 42.7536ZM37.8646 47.2726C37.8646 49.7176 39.8678 51.7034 42.3274 51.7034C44.79 51.7034 46.7932 49.7145 46.7932 47.2726C46.7932 44.8276 44.79 42.8388 42.3274 42.8388C39.8678 42.8388 37.8646 44.8276 37.8646 47.2726ZM45.3996 47.2726C45.3996 48.9512 44.0243 50.3167 42.3304 50.3167C40.6397 50.3167 39.2644 48.9513 39.2644 47.2726C39.2644 45.5939 40.6396 44.2254 42.3304 44.2254C44.0211 44.2285 45.3996 45.5939 45.3996 47.2726ZM25.6037 49.3496C25.6037 52.0349 27.8029 54.2183 30.5075 54.2183C33.212 54.2183 35.4113 52.0349 35.4113 49.3496C35.4113 46.6644 33.212 44.4809 30.5075 44.4809C27.8029 44.484 25.6037 46.6675 25.6037 49.3496ZM34.0118 49.3496C34.0118 51.2685 32.4405 52.8286 30.5077 52.8286C28.5749 52.8286 27.0036 51.2686 27.0036 49.3496C27.0036 47.4307 28.5749 45.8707 30.5077 45.8707C32.4405 45.8707 34.0118 47.4337 34.0118 49.3496Z" fill="#5FB0C2"/>
</svg>
