<svg width="31" height="27" viewBox="0 0 31 27" fill="none" xmlns="http://www.w3.org/2000/svg">
<path d="M31 2.64706C27.7891 4.94118 25.4247 7.14706 23.9068 9.26471C22.3889 11.3235 21.6299 13.3235 21.6299 15.2647C21.6299 15.8529 21.8635 16.1471 22.3305 16.1471L24.2571 15.9706C26.0669 15.9706 27.5264 16.4706 28.6356 17.4706C29.7448 18.4118 30.2994 19.7059 30.2994 21.3529C30.2994 23 29.7156 24.3529 28.548 25.4118C27.4388 26.4706 26.0377 27 24.3446 27C22.1262 27 20.3164 26.2059 18.9153 24.6176C17.5141 22.9706 16.8136 20.7353 16.8136 17.9118C16.8136 14.6176 17.7768 11.5294 19.7034 8.64706C21.6883 5.70588 24.7241 2.82353 28.8107 0L31 2.64706ZM14.1864 2.64706C11.3842 4.41177 9.10734 6.47059 7.35593 8.82353C5.60452 11.1765 4.72881 13.3235 4.72881 15.2647C4.72881 15.8529 4.96234 16.1471 5.42938 16.1471L7.26836 15.9706C9.13653 15.9706 10.6252 16.4706 11.7345 17.4706C12.8437 18.4118 13.3983 19.7059 13.3983 21.3529C13.3983 23 12.8145 24.3529 11.6469 25.4118C10.5377 26.4706 9.13653 27 7.4435 27C5.22505 27 3.41525 26.2059 2.01412 24.6176C0.671375 22.9706 0 20.7353 0 17.9118C0 14.6176 0.963277 11.5294 2.88983 8.64706C4.81638 5.70588 7.82298 2.82353 11.9096 0L14.1864 2.64706Z" fill="#C6E4EB"/>
</svg>
