<svg width="31" height="22" viewBox="0 0 31 22" fill="none" xmlns="http://www.w3.org/2000/svg">
<path d="M27.5134 8.25H23.5946C23.9659 6.8475 24.9834 4.79875 27.8434 4.08375L28.8884 3.8225V0H27.5134C23.6909 0 20.7621 1.05875 18.8371 3.14875C16.2384 5.9675 16.4996 9.58375 16.5134 9.625V19.25C16.5134 20.7625 17.7509 22 19.2634 22H27.5134C29.0259 22 30.2634 20.7625 30.2634 19.25V11C30.2634 9.4875 29.0259 8.25 27.5134 8.25ZM11.0134 8.25H7.09462C7.46587 6.8475 8.48337 4.79875 11.3434 4.08375L12.3884 3.8225V0H11.0134C7.19087 0 4.26212 1.05875 2.33712 3.14875C-0.26163 5.9675 -0.000379782 9.58375 0.0133702 9.625V19.25C0.0133702 20.7625 1.25087 22 2.76337 22H11.0134C12.5259 22 13.7634 20.7625 13.7634 19.25V11C13.7634 9.4875 12.5259 8.25 11.0134 8.25Z" fill="#CECECE"/>
</svg>
