<svg width="330" height="450" viewBox="0 0 330 450" fill="none" xmlns="http://www.w3.org/2000/svg">
<path d="M310 0L313.244 0.261766L316.322 1.01961L319.191 2.23236L321.812 3.85884L324.142 5.85787L326.141 8.18826L327.768 10.8089L328.98 13.6785L329.738 16.7559L330 20V430L329.738 433.244L328.98 436.322L327.768 439.191L326.141 441.812L324.142 444.142L321.812 446.141L319.191 447.768L316.322 448.98L313.244 449.738L310 450H305.086H291.448H270.741H244.621H214.744H182.766H150.343H119.129H90.782H66.956H148.956L141.742 449.132L135.78 446.731L130.744 443.18L126.31 438.862L122.156 434.158L117.956 429.452L113.387 425.126L108.124 421.563L101.845 419.144L94.2236 418.253H22.2305L16.1974 417.742L11.3684 416.357L7.60943 414.314L4.78647 411.833L2.76552 409.134L1.41254 406.433L0.593522 403.951L0.17444 401.906L0.0212732 400.516L0 400V20L0.261766 16.7559L1.01961 13.6785L2.23236 10.8089L3.85884 8.18826L5.85787 5.85787L8.18826 3.85884L10.8089 2.23236L13.6785 1.01961L16.7559 0.261766L20 0H310Z" fill="black"/>
</svg>
