<svg width="28" height="28" viewBox="0 0 28 28" fill="none" xmlns="http://www.w3.org/2000/svg">
<path d="M14 28C14 27.0703 14.0911 26.1589 14.2734 25.2656C14.4557 24.3542 14.7201 23.4792 15.0664 22.6406C15.4128 21.8021 15.8411 21 16.3516 20.2344C16.862 19.4688 17.4453 18.7578 18.1016 18.1016C18.7578 17.4453 19.4688 16.862 20.2344 16.3516C21 15.8411 21.8021 15.4128 22.6406 15.0664C23.4792 14.7201 24.3542 14.4557 25.2656 14.2734C26.1589 14.0911 27.0703 14 28 14C27.0703 14 26.1589 13.9089 25.2656 13.7266C24.3542 13.5443 23.4792 13.2799 22.6406 12.9336C21.8021 12.5872 21 12.1589 20.2344 11.6484C19.4688 11.138 18.7578 10.5547 18.1016 9.89844C17.4453 9.24219 16.862 8.53125 16.3516 7.76562C15.8411 7 15.4128 6.19792 15.0664 5.35938C14.7201 4.52083 14.4557 3.64583 14.2734 2.73438C14.0911 1.84115 14 0.929688 14 0C14 0.929688 13.9089 1.84115 13.7266 2.73438C13.5443 3.64583 13.2799 4.52083 12.9336 5.35938C12.5872 6.19792 12.1589 7 11.6484 7.76562C11.138 8.53125 10.5547 9.24219 9.89844 9.89844C9.24219 10.5547 8.53125 11.138 7.76562 11.6484C7 12.1589 6.19792 12.5872 5.35938 12.9336C4.52083 13.2799 3.64583 13.5443 2.73438 13.7266C1.84115 13.9089 0.929688 14 0 14C0.929688 14 1.84115 14.0911 2.73438 14.2734C3.64583 14.4557 4.52083 14.7201 5.35938 15.0664C6.19792 15.4128 7 15.8411 7.76562 16.3516C8.53125 16.862 9.24219 17.4453 9.89844 18.1016C10.5547 18.7578 11.138 19.4688 11.6484 20.2344C12.1589 21 12.5872 21.8021 12.9336 22.6406C13.2799 23.4792 13.5443 24.3542 13.7266 25.2656C13.9089 26.1589 14 27.0703 14 28Z" fill="white"/>
</svg>
