<svg width="31" height="27" viewBox="0 0 31 27" fill="none" xmlns="http://www.w3.org/2000/svg">
<path d="M0 24.3529C3.21092 22.0588 5.57533 19.8529 7.09322 17.7353C8.61111 15.6765 9.37006 13.6765 9.37006 11.7353C9.37006 11.1471 9.13653 10.8529 8.66949 10.8529L6.74294 11.0294C4.93315 11.0294 3.47363 10.5294 2.36441 9.52941C1.25518 8.58823 0.700565 7.29412 0.700565 5.64706C0.700565 4 1.28437 2.64706 2.45198 1.58823C3.5612 0.529411 4.96234 -1.90735e-06 6.65537 -1.90735e-06C8.87382 -1.90735e-06 10.6836 0.794117 12.0847 2.38235C13.4859 4.02941 14.1864 6.26471 14.1864 9.08823C14.1864 12.3824 13.2232 15.4706 11.2966 18.3529C9.31168 21.2941 6.27589 24.1765 2.18926 27L0 24.3529ZM16.8136 24.3529C19.6158 22.5882 21.8927 20.5294 23.6441 18.1765C25.3955 15.8235 26.2712 13.6765 26.2712 11.7353C26.2712 11.1471 26.0377 10.8529 25.5706 10.8529L23.7316 11.0294C21.8635 11.0294 20.3748 10.5294 19.2655 9.52941C18.1563 8.58823 17.6017 7.29412 17.6017 5.64706C17.6017 4 18.1855 2.64706 19.3531 1.58823C20.4623 0.529411 21.8635 -1.90735e-06 23.5565 -1.90735e-06C25.775 -1.90735e-06 27.5847 0.794117 28.9859 2.38235C30.3286 4.02941 31 6.26471 31 9.08823C31 12.3824 30.0367 15.4706 28.1102 18.3529C26.1836 21.2941 23.177 24.1765 19.0904 27L16.8136 24.3529Z" fill="#417F8C"/>
</svg>
